<svg xmlns="http://www.w3.org/2000/svg" width="23" height="17" fill="none" viewBox="0 0 23 17"><path fill="#FA7268" d="M22.7755 7.94927L19.632 4.78286C19.0669 4.21418 18.4443 3.70659 17.7743 3.26839L19.7095 1.31912C19.7807 1.24737 19.8372 1.16218 19.8758 1.06843C19.9143 0.974681 19.9342 0.874199 19.9342 0.772723C19.9342 0.671248 19.9143 0.570766 19.8758 0.477015C19.8372 0.383264 19.7807 0.298079 19.7095 0.226325C19.6382 0.154571 19.5537 0.0976531 19.4606 0.0588201C19.3675 0.0199871 19.2678 0 19.167 0C19.0663 0 18.9665 0.0199871 18.8735 0.0588201C18.7804 0.0976531 18.6958 0.154571 18.6246 0.226325L16.372 2.49532C14.2333 1.48681 11.8385 1.16529 9.51221 1.57436C7.18596 1.98343 5.0409 3.1033 3.36796 4.78209L0.22448 7.94849C0.0807456 8.09332 0 8.28972 0 8.4945C0 8.69929 0.0807456 8.89569 0.22448 9.04052L3.36796 12.2069C3.93309 12.7756 4.55572 13.2832 5.22568 13.7214L3.29053 15.6722C3.2173 15.7434 3.15889 15.8287 3.11871 15.9229C3.07852 16.0171 3.05737 16.1185 3.05649 16.221C3.0556 16.3235 3.075 16.4252 3.11355 16.5201C3.1521 16.6151 3.20903 16.7013 3.28102 16.7738C3.35301 16.8463 3.43861 16.9037 3.53284 16.9425C3.62706 16.9813 3.72802 17.0009 3.82983 17C3.93163 16.9991 4.03224 16.9778 4.12578 16.9373C4.21932 16.8968 4.30392 16.838 4.37464 16.7642L6.62722 14.4952C8.15205 15.2161 9.81522 15.5914 11.4996 15.595C13.0096 15.5976 14.5053 15.2998 15.9008 14.7187C17.2962 14.1375 18.564 13.2845 19.6313 12.2085L22.7748 9.04206C22.8461 8.97039 22.9027 8.88525 22.9413 8.79152C22.98 8.6978 22.9999 8.59731 23 8.49582C23.0001 8.39433 22.9803 8.29382 22.9418 8.20004C22.9032 8.10626 22.8468 8.02104 22.7755 7.94927ZM4.45131 11.1157L1.84989 8.49528L4.45208 5.87411C5.83459 4.48507 7.59119 3.53495 9.50438 3.1414C11.4176 2.74784 13.4033 2.92813 15.2158 3.65994L13.6104 5.27713C12.8743 4.78487 11.9918 4.5643 11.1126 4.65284C10.2335 4.74138 9.41178 5.13359 8.78702 5.7629C8.16226 6.39222 7.7729 7.21988 7.685 8.10545C7.5971 8.99102 7.81607 9.87995 8.30476 10.6214L6.34354 12.5969C5.6561 12.1821 5.021 11.685 4.45208 11.1164L4.45131 11.1157ZM13.7997 8.49528C13.7997 9.10975 13.5574 9.69906 13.126 10.1336C12.6947 10.5681 12.1096 10.8122 11.4996 10.8122C11.1581 10.8108 10.8212 10.7316 10.5144 10.5805L13.5697 7.50288C13.7198 7.81195 13.7984 8.15123 13.7997 8.49528ZM9.19951 8.49528C9.19951 7.8808 9.44184 7.29149 9.87319 6.85699C10.3045 6.42249 10.8896 6.17839 11.4996 6.17839C11.8412 6.17973 12.178 6.25894 12.4848 6.41008L9.42952 9.48767C9.27947 9.1786 9.20083 8.83932 9.19951 8.49528ZM18.5472 11.1164C17.1647 12.5057 15.4082 13.4559 13.4949 13.8495C11.5817 14.243 9.59587 14.0626 7.78341 13.3306L9.38888 11.7134C10.125 12.2057 11.0075 12.4263 11.8866 12.3377C12.7658 12.2492 13.5875 11.857 14.2122 11.2277C14.837 10.5983 15.2263 9.77067 15.3142 8.88511C15.4021 7.99954 15.1832 7.11061 14.6945 6.36915L16.6557 4.39362C17.3431 4.8085 17.9782 5.3056 18.5472 5.87411L21.1493 8.49528L18.5472 11.1164Z"/></svg>