<svg xmlns="http://www.w3.org/2000/svg" width="62" height="64" fill="none" viewBox="0 0 62 64"><path fill="#FAE4D9" d="M52.9203 52.8751C65.0266 40.7792 65.0266 21.1678 52.9203 9.07193C40.8141 -3.02398 21.1859 -3.02397 9.07969 9.07193C-3.02657 21.1678 -3.02657 40.7792 9.07969 52.8751C21.1859 64.971 40.8141 64.971 52.9203 52.8751Z"/><path fill="#C7776E" d="M38.0644 51.0206H24.244C24.244 51.0206 26.8785 43.1068 24.244 33.0748C23.5477 30.4198 38.6839 30.4085 38.0644 33.0748C36.1262 41.3974 38.0644 51.0206 38.0644 51.0206Z"/><path fill="url(#paint0_linear_24_251)" d="M38.0644 51.0206H24.244C24.244 51.0206 26.8785 43.1068 24.244 33.0748C23.5477 30.4198 38.6839 30.4085 38.0644 33.0748C36.1262 41.3974 38.0644 51.0206 38.0644 51.0206Z"/><path fill="#C7776E" d="M42.6542 24.505C42.6542 31.3199 40.4403 34.4121 37.9536 36.3629C36.3848 37.5952 34.7081 38.3704 33.4064 39.3245C32.7511 39.8085 31.9577 40.0696 31.1428 40.0696C30.3279 40.0696 29.5345 39.8085 28.8792 39.3245C27.7993 38.5294 26.4579 37.7997 25.1335 36.8229C22.3484 34.7727 19.6429 31.6379 19.6429 24.505C19.6429 16.1 24.7925 9.28803 31.1442 9.28803C37.496 9.28803 42.6542 16.1 42.6542 24.505Z"/><path fill="#FCE096" d="M21.3139 21.2226C21.3139 21.2226 21.4958 17.3864 22.3996 16.1512C23.3033 14.916 37.8569 14.3793 39.0392 15.6685C40.2215 16.9576 40.6165 21.8643 40.6165 21.8643C40.6165 21.8643 42.8531 21.0124 42.7991 20.1038C42.5604 16.1057 41.7902 13.7376 41.0456 12.3547C40.1106 10.6141 41.9863 7.00508 42.2989 5.05432L36.5127 8.20903L37.3653 5.43482L32.2441 9.3704L32.5965 7.24643L28.3989 9.28805C28.3989 9.28805 24.7044 8.43619 21.2941 11.4631C19.2251 13.306 19.0859 20.0953 19.0859 20.0953L21.3139 21.2226Z"/><g style="mix-blend-mode:color-burn"><path fill="#E8E8E8" d="M42.7991 23.852C42.7992 24.9955 42.6908 26.1364 42.4751 27.2594C41.9033 26.9811 41.424 26.5439 41.0944 26.0004C40.7649 25.4568 40.5993 24.8298 40.6173 24.1946C40.6352 23.5593 40.8362 22.9427 41.1959 22.4186C41.5557 21.8946 42.059 21.4852 42.6456 21.2396C42.7489 22.1066 42.8001 22.9789 42.7991 23.852Z"/></g><path fill="#C7776E" d="M42.5234 26.595C41.8916 26.4231 41.3249 26.068 40.895 25.5743C40.4652 25.0807 40.1915 24.4708 40.1086 23.8218C40.0257 23.1728 40.1373 22.5138 40.4293 21.9281C40.7213 21.3425 41.1805 20.8565 41.7489 20.5316C42.3173 20.2067 42.9694 20.0575 43.6227 20.103C44.276 20.1484 44.9011 20.3863 45.419 20.7867C45.9369 21.1871 46.3244 21.732 46.5323 22.3524C46.7403 22.9728 46.7595 23.6409 46.5874 24.2722C46.356 25.1182 45.7982 25.838 45.0362 26.2734C44.2743 26.7089 43.3706 26.8246 42.5234 26.595Z"/><g style="mix-blend-mode:color-burn"><path fill="#919191" d="M45.3398 23.9315C45.4434 23.5419 45.4001 23.1279 45.2182 22.7681C45.0363 22.4084 44.7285 22.1279 44.3532 21.98C43.9779 21.8321 43.5613 21.8271 43.1826 21.966C42.8039 22.1049 42.4894 22.3779 42.2989 22.7332C42.5318 22.8024 42.7464 22.9224 42.9271 23.0846C43.1079 23.2467 43.2503 23.447 43.3442 23.6709C43.438 23.8948 43.4809 24.1367 43.4697 24.3792C43.4584 24.6217 43.3935 24.8587 43.2794 25.073H43.3192C43.7386 25.1882 44.1866 25.1328 44.5653 24.9189C44.9439 24.705 45.2224 24.35 45.3398 23.9315Z"/></g><g style="mix-blend-mode:color-burn"><path fill="#E8E8E8" d="M19.6827 23.852C19.6825 24.9955 19.791 26.1364 20.0066 27.2594C20.5784 26.9811 21.0578 26.5439 21.3873 26.0004C21.7168 25.4568 21.8825 24.8298 21.8645 24.1946C21.8465 23.5593 21.6456 22.9427 21.2859 22.4186C20.9261 21.8946 20.4228 21.4852 19.8361 21.2396C19.7329 22.1066 19.6817 22.9789 19.6827 23.852Z"/></g><path fill="#C7776E" d="M19.9583 26.595C20.5902 26.4231 21.1569 26.068 21.5867 25.5743C22.0165 25.0807 22.2902 24.4708 22.3731 23.8218C22.456 23.1728 22.3444 22.5138 22.0525 21.9281C21.7605 21.3425 21.3013 20.8565 20.7328 20.5316C20.1644 20.2067 19.5123 20.0575 18.8591 20.103C18.2058 20.1484 17.5807 20.3863 17.0627 20.7867C16.5448 21.1871 16.1574 21.732 15.9494 22.3524C15.7414 22.9728 15.7223 23.6409 15.8943 24.2722C16.1257 25.1182 16.6836 25.838 17.4455 26.2734C18.2074 26.7089 19.1112 26.8246 19.9583 26.595Z"/><g style="mix-blend-mode:color-burn"><path fill="#919191" d="M17.142 23.9315C17.0442 23.5443 17.0908 23.1347 17.2732 22.7794C17.4555 22.424 17.761 22.1471 18.1328 22.0003C18.5045 21.8535 18.917 21.847 19.2932 21.9819C19.6694 22.1167 19.9836 22.3838 20.1772 22.7332C19.7663 22.856 19.4198 23.1344 19.2116 23.509C19.0035 23.8835 18.9502 24.3246 19.0631 24.7379C19.094 24.8546 19.1389 24.9671 19.1967 25.073H19.1569C18.7383 25.1865 18.2917 25.1302 17.9144 24.9165C17.537 24.7027 17.2594 24.3487 17.142 23.9315Z"/></g><path fill="url(#paint1_linear_24_251)" d="M29.7915 22.9206C29.7221 23.9724 29.2868 24.9668 28.5609 25.7317C28.0266 26.2513 27.3247 26.5836 26.833 27.1515C26.3414 27.7194 26.1453 28.6791 26.7137 29.1562C27.0518 29.4401 27.5407 29.4799 27.9925 29.4884L34.404 29.6446C34.7398 29.685 35.0801 29.6247 35.3816 29.4714C35.8704 29.159 35.9045 28.4293 35.6658 27.9039C35.4271 27.3786 34.9553 26.9754 34.6086 26.5126C33.3184 24.7947 33.5002 22.3953 32.6562 20.4218C32.2384 19.4478 30.951 18.2893 29.9762 19.3996C29.297 20.1606 29.891 21.9835 29.7915 22.9206Z"/><path fill="#FCE096" d="M39.4285 21.0579C37.1855 20.6011 34.888 20.472 32.6079 20.6745C32.5953 19.3934 32.8079 18.1199 33.2359 16.9122C34.8075 17.0201 36.2598 17.1961 37.7092 17.8038C38.2436 17.986 38.7115 18.323 39.0534 18.7721C39.3888 19.3087 39.4598 20.4161 39.4285 21.0579Z"/><path fill="#FCE096" d="M22.7747 21.0579C25.0177 20.6011 27.3152 20.472 29.5954 20.6745C29.6129 19.3946 29.4071 18.1215 28.9872 16.9122C27.4128 17.0201 25.9634 17.1961 24.514 17.8038C23.9785 17.9855 23.5095 18.3226 23.1669 18.7721C22.8116 19.3087 22.7349 20.4161 22.7747 21.0579Z"/><path fill="url(#paint2_linear_24_251)" d="M29.4533 32.9384C29.6291 32.7657 29.8422 32.6357 30.0763 32.5584C30.3103 32.4811 30.5591 32.4586 30.8032 32.4926C31.0369 32.5856 31.2882 32.6263 31.5393 32.6119C31.8462 32.5352 32.0139 32.203 32.3009 32.0724C32.7073 31.8821 33.1762 32.1689 33.486 32.4955C33.7958 32.822 34.0715 33.2224 34.5034 33.3473C33.8053 34.1681 32.8368 34.7129 31.7723 34.8835C30.8932 35.0389 29.9874 34.9106 29.1861 34.5172C28.4188 34.0742 28.919 33.4212 29.4533 32.9384Z"/><path fill="url(#paint3_linear_24_251)" d="M34.2164 33.4751C34.2977 33.468 34.379 33.489 34.4466 33.5348C34.4759 33.5679 34.4983 33.6066 34.5125 33.6485C34.5266 33.6905 34.5323 33.7348 34.529 33.779C34.5281 34.0901 34.4647 34.3979 34.3427 34.6842C34.2206 34.9705 34.0424 35.2295 33.8185 35.4458C33.3476 35.8777 32.768 36.1736 32.1417 36.3016C31.5155 36.4297 30.8661 36.3851 30.2632 36.1727C29.7489 35.9625 28.1602 34.7529 29.1265 34.2191C29.5698 33.9749 30.2007 33.9039 30.6924 33.8073C31.2324 33.6966 31.7752 33.6171 32.3237 33.5603C32.9526 33.4981 33.5844 33.4696 34.2164 33.4751Z"/><path fill="#C7776E" d="M31.1244 33.6795C31.8551 33.6816 32.5855 33.6465 33.3127 33.5745C34.0345 33.4552 34.7677 33.1173 35.1372 32.4869C35.1577 32.7176 35.1085 32.9491 34.996 33.1515C34.8836 33.354 34.713 33.5181 34.5063 33.6228C34.0867 33.8264 33.6257 33.9304 33.1592 33.9266C31.8775 34.0004 30.6014 34.0941 29.3368 34.2105C29.7659 33.7903 30.556 33.7165 31.1244 33.6795Z"/><g style="mix-blend-mode:color-burn"><path fill="#919191" d="M31.1244 33.6795C31.8551 33.6816 32.5855 33.6465 33.3127 33.5745C34.0345 33.4552 34.7677 33.1173 35.1372 32.4869C35.1577 32.7176 35.1085 32.9491 34.996 33.1515C34.8836 33.354 34.713 33.5181 34.5063 33.6228C34.0867 33.8264 33.6257 33.9304 33.1592 33.9266C31.8775 34.0004 30.6014 34.0941 29.3368 34.2105C29.7659 33.7903 30.556 33.7165 31.1244 33.6795Z"/></g><path fill="#fff" d="M38.7522 23.869C38.3187 24.0309 37.8553 24.0978 37.3937 24.0649C37.2033 24.0649 37.0129 24.0479 36.8253 24.0337L34.907 23.9003H34.7564C34.3862 23.8998 34.0255 23.7836 33.7247 23.568C33.595 23.4469 33.4907 23.3012 33.418 23.1393C33.3453 22.9774 33.3056 22.8027 33.3013 22.6253C33.2929 22.2713 33.333 21.9178 33.4207 21.5747C33.8293 21.4624 34.2466 21.3845 34.6683 21.3418C35.7687 21.241 36.8784 21.3529 37.9365 21.6712C38.5433 21.846 39.1338 22.0731 39.7014 22.3499C39.8463 22.9774 39.3518 23.6191 38.7522 23.869Z"/><path fill="url(#paint4_linear_24_251)" d="M38.1042 22.8979C38.0159 23.3598 37.7636 23.7742 37.3937 24.0649C37.2033 24.0649 37.0129 24.0479 36.8253 24.0337L34.907 23.9003H34.7564C34.538 23.6738 34.3773 23.3983 34.2878 23.0969C34.1983 22.7954 34.1825 22.4769 34.242 22.1681C34.242 22.1256 34.2647 22.0858 34.2761 22.046C34.6285 22.046 34.9837 22.046 35.3361 22.0631C35.1685 22.0631 34.8246 21.4952 34.6711 21.3475C35.7716 21.2467 36.8812 21.3585 37.9394 21.6769C38.1261 22.0551 38.184 22.4838 38.1042 22.8979Z"/><path fill="#fff" d="M23.6273 23.869C24.0608 24.0309 24.5241 24.0977 24.9857 24.0649C25.1762 24.0649 25.3666 24.0479 25.5541 24.0337L27.4724 23.9002H27.6231C27.9932 23.8998 28.354 23.7836 28.6547 23.568C28.7845 23.4469 28.8887 23.3011 28.9614 23.1392C29.0342 22.9774 29.0738 22.8026 29.0782 22.6253C29.0866 22.2713 29.0464 21.9178 28.9588 21.5746C28.5502 21.4624 28.1328 21.3845 27.7112 21.3418C26.6101 21.2388 25.4995 21.3487 24.4401 21.6655C23.8333 21.8403 23.2428 22.0674 22.6752 22.3442C22.5331 22.9774 23.0191 23.6191 23.6273 23.869Z"/><path fill="url(#paint5_linear_24_251)" d="M24.2753 22.8979C24.3636 23.3597 24.6159 23.7742 24.9857 24.0649C25.1762 24.0649 25.3666 24.0479 25.5541 24.0337L27.4725 23.9002H27.6231C27.844 23.6714 28.006 23.3925 28.0951 23.0873C28.1842 22.7821 28.1978 22.4598 28.1346 22.1482C28.1346 22.1056 28.1119 22.0659 28.1005 22.0261C27.7481 22.0261 27.3929 22.0261 27.0405 22.0432C27.2082 22.0432 27.552 21.4753 27.7055 21.3276C26.6054 21.2299 25.4968 21.3446 24.4401 21.6655C24.2509 22.047 24.1929 22.4801 24.2753 22.8979Z"/><path fill="#000446" d="M29.476 23.1166C29.4003 22.7643 29.2596 22.4292 29.0611 22.1284C28.8931 21.8742 28.6882 21.6464 28.4529 21.4526C27.879 20.9793 27.1481 20.7386 26.405 20.778C25.6619 20.8174 24.9606 21.1342 24.4401 21.6656C23.8935 22.223 23.5874 22.9723 23.5875 23.7526C23.5875 23.7838 23.5875 23.8179 23.5875 23.8492C23.6126 24.6213 23.9369 25.3535 24.4921 25.8913C25.0472 26.429 25.7898 26.7302 26.563 26.7313C26.8627 26.7322 27.1608 26.6872 27.4469 26.5978C27.9769 26.4326 28.4503 26.1229 28.8138 25.7035C29.1773 25.2841 29.4165 24.7717 29.5045 24.224C29.5045 24.224 29.5045 24.2041 29.5045 24.1956C29.525 24.0507 29.5354 23.9046 29.5357 23.7583C29.5395 23.5428 29.5195 23.3276 29.476 23.1166ZM26.563 26.1634C25.968 26.165 25.3932 25.9471 24.949 25.5515C24.5048 25.1559 24.2224 24.6104 24.1559 24.0195C24.1559 23.9315 24.1417 23.8435 24.1417 23.7526C24.1403 23.1588 24.3586 22.5854 24.7547 22.1426C25.1507 21.6999 25.6965 21.4189 26.2872 21.3538C26.878 21.2886 27.472 21.4439 27.9551 21.7897C28.4383 22.1355 28.7765 22.6475 28.9048 23.2273C28.9447 23.3995 28.9648 23.5758 28.9645 23.7526C28.9645 24.39 28.7118 25.0015 28.2618 25.4533C27.8118 25.905 27.201 26.1604 26.563 26.1634Z"/><path fill="#000446" d="M37.982 21.7649L37.8712 21.6485C37.3471 21.122 36.6445 20.8109 35.9021 20.7768C35.1597 20.7426 34.4315 20.9878 33.8612 21.4639C33.6613 21.6298 33.4837 21.8206 33.3326 22.0318C33.2833 22.1 33.2378 22.1709 33.1961 22.2448C33.0267 22.5282 32.9066 22.8384 32.8409 23.1619C32.8032 23.3566 32.7842 23.5543 32.7841 23.7526C32.7843 23.9489 32.8033 24.1448 32.8409 24.3375C32.9858 25.0501 33.3866 25.6852 33.9677 26.1229C34.5489 26.5607 35.2702 26.7709 35.9958 26.714C36.7214 26.6571 37.401 26.337 37.9067 25.8139C38.4123 25.2909 38.709 24.6011 38.7408 23.8747C38.7408 23.8349 38.7408 23.7952 38.7408 23.7554C38.7423 23.0211 38.4721 22.3121 37.982 21.7649ZM35.7624 26.1633C35.4243 26.1638 35.0899 26.0927 34.7813 25.9547C34.4727 25.8167 34.1969 25.6149 33.972 25.3626C33.5743 24.9216 33.3546 24.3489 33.3553 23.7554C33.355 23.5913 33.3721 23.4275 33.4065 23.267C33.4123 23.2314 33.4208 23.1963 33.432 23.1619C33.5238 22.8014 33.6978 22.467 33.9404 22.1847C34.1829 21.9025 34.4875 21.6801 34.8303 21.5349C35.1252 21.4102 35.4422 21.3465 35.7624 21.3475C36.2787 21.3482 36.7812 21.5139 37.1964 21.8205C37.6117 22.127 37.9178 22.5583 38.0701 23.0512C38.14 23.2814 38.1754 23.5206 38.1752 23.7611C38.1752 23.8548 38.1752 23.9456 38.161 24.045C38.0883 24.6295 37.8044 25.1674 37.3627 25.5574C36.921 25.9475 36.3519 26.163 35.7624 26.1633Z"/><path fill="#000446" d="M31.1499 22.6395C30.4799 22.6348 29.8265 22.8481 29.2885 23.2471C29.2657 23.6049 29.189 23.9883 29.1663 24.346C29.5322 24.2141 29.8851 24.0487 30.2206 23.852C30.6964 23.6538 31.2228 23.6113 31.7242 23.7307C32.2256 23.8501 32.6762 24.1252 33.0114 24.5164C33.0626 24.1189 32.9887 23.6646 33.0114 23.2699C32.4756 22.864 31.8224 22.6428 31.1499 22.6395Z"/><path fill="#FA6857" d="M40.1447 49.3537L39.6502 49.2202C39.7277 49.1282 39.7954 49.0283 39.852 48.9221C40.4431 47.8374 39.852 46.2132 38.6442 45.8554C38.8857 45.3727 39.1301 44.8928 39.3745 44.4101L37.8456 44.1261C38.0071 43.8607 38.1305 43.574 38.2122 43.2743C38.2134 43.2687 38.2134 43.2629 38.2122 43.2572C38.3571 42.7433 38.3259 42.2322 37.8882 41.988C37.6768 41.8798 37.4325 41.8544 37.2033 41.917C36.9257 41.993 36.6585 42.1027 36.4076 42.2435C34.1468 43.3779 31.5757 43.739 29.0895 43.2714C28.021 43.0755 26.5318 42.3174 25.412 42.3316C25.0463 42.3171 24.6888 42.4419 24.4117 42.6808C24.0848 42.9818 23.8717 43.5043 23.8433 44.3505C23.8234 44.8417 23.9371 45.3415 23.8149 45.8157C23.6927 46.2899 23.1868 46.73 22.7378 46.5284L23.7154 47.7039L22.2717 48.3797C22.2717 48.7688 22.2575 49.1549 22.2518 49.5411C22.2518 49.7342 22.2518 49.9244 22.2518 50.109C15.718 50.7084 9.32685 52.3746 3.33292 55.0413C11.1779 60.7792 20.6282 63.9109 30.3502 63.9945C40.0722 64.078 49.575 61.1092 57.5176 55.507C52.0947 53.0895 46.4961 51.0866 40.7699 49.5156L40.1447 49.3537Z"/><g style="mix-blend-mode:color-burn"><path fill="#919191" d="M28.3108 45.6624C27.3815 45.3131 26.3925 45.0632 25.5826 44.484C25.5027 44.4274 25.4259 44.3668 25.3524 44.3022C24.8575 43.8921 24.5251 43.3193 24.4145 42.6865C24.0877 42.9875 23.8745 43.51 23.8461 44.3562C23.8262 44.8474 23.9399 45.3472 23.8177 45.8214C23.6955 46.2956 23.1896 46.7357 22.7406 46.5341L23.7154 47.704L22.2717 48.3798C22.2717 48.7688 22.2575 49.155 22.2518 49.5411C22.3512 49.5315 22.4477 49.5026 22.536 49.456C22.8202 49.3083 22.9736 48.6808 23.3886 48.4706C23.8234 48.3086 24.2861 48.2343 24.7499 48.252H24.9005C25.429 48.2562 25.9453 48.0932 26.3755 47.7863L25.071 47.1361L24.7243 46.9657C24.8516 46.8835 24.9845 46.8104 25.1222 46.7471C25.9669 46.33 26.9251 46.2004 27.8504 46.3779C28.0291 46.431 28.2168 46.4465 28.4018 46.4233C28.4942 46.4091 28.5784 46.3624 28.6394 46.2916C28.7004 46.2208 28.734 46.1306 28.7343 46.0372C28.703 45.8412 28.4984 45.7333 28.3108 45.6624Z"/></g><g style="mix-blend-mode:color-burn"><path fill="#919191" d="M38.6498 45.8554C38.8914 45.3727 39.1358 44.8928 39.3802 44.4101L37.8513 44.1262C38.0128 43.8608 38.1362 43.574 38.2179 43.2743C38.0109 43.724 37.6943 44.1145 37.2971 44.4101C37.2715 44.4328 37.2459 44.4499 37.2203 44.4697C36.4104 45.0376 35.4214 45.2989 34.4921 45.6481C34.3073 45.7191 34.0942 45.827 34.0715 46.023C34.0717 46.1164 34.1054 46.2066 34.1663 46.2774C34.2273 46.3482 34.3116 46.3949 34.404 46.4091C34.5945 46.4341 34.7882 46.4186 34.9724 46.3637C35.8194 46.2064 36.6942 46.3053 37.4846 46.6477C37.6959 46.7366 37.8993 46.843 38.0928 46.9657L37.5415 47.2496L36.4473 47.7891C36.7967 48.0555 37.219 48.209 37.658 48.2293C37.7973 48.2463 37.9422 48.2548 38.0729 48.2633C38.5367 48.2457 38.9994 48.32 39.4342 48.482C39.6172 48.5915 39.7682 48.7472 39.8719 48.9335C40.4403 47.8374 39.8577 46.2132 38.6498 45.8554Z"/></g><path fill="#854F49" d="M40.2698 49.4559C40.3422 49.5002 40.4231 49.5288 40.5073 49.5401C40.5914 49.5513 40.677 49.5449 40.7586 49.5212L40.1447 49.3537C40.1794 49.3955 40.2219 49.4303 40.2698 49.4559Z"/><path fill="#FDC07A" d="M33.1393 11.5199C32.0541 11.0981 30.8919 10.9103 29.729 10.9691C30.3251 10.6426 30.8317 10.1745 31.2039 9.60608C30.1382 9.90991 28.9986 9.83324 27.9016 9.82472C27.264 9.80527 26.6259 9.84137 25.9946 9.93263C25.6747 9.98578 25.3579 10.0559 25.0454 10.1428C24.7699 10.2615 24.4846 10.3565 24.1928 10.4267C25.6138 10.3472 27.0717 10.2677 28.4558 10.5914C27.3456 10.8041 26.3067 11.2923 25.4348 12.0112C26.4935 11.5364 27.69 11.4667 28.7968 11.8152L26.1254 13.7717C27.2662 13.1834 28.5365 12.8905 29.8199 12.9198C31.1011 12.9558 32.377 13.1002 33.6338 13.3514C32.5343 12.6483 31.2951 12.192 30.0018 12.014C30.9667 11.5149 32.0675 11.3415 33.1393 11.5199Z"/><path fill="#FCE096" d="M37.0413 31.7799C36.7423 31.2403 36.2984 30.7949 35.7596 30.4939C35.2208 30.1928 34.6086 30.0482 33.9919 30.0762C32.7613 30.1074 32.5425 30.0989 30.9993 31.0189C29.638 30.0989 27.2735 29.5991 25.9776 31.5584C24.9801 33.0662 24.46 34.9658 24.9175 36.7775C24.9795 37.017 25.0544 37.2531 25.1421 37.4845C26.4664 38.5578 27.8078 39.3586 28.8877 40.2303C29.5229 40.76 30.324 41.0502 31.1514 41.0502C31.9787 41.0502 32.7798 40.76 33.415 40.2303C34.7081 39.1825 36.3848 38.3335 37.9621 36.9791C37.928 36.2578 37.7546 35.5195 37.6523 34.7983C37.5131 33.7732 37.5131 32.6857 37.0413 31.7799ZM36.0921 34.2985C35.8846 35.3605 34.9894 36.0761 34.1027 36.5929C33.2871 37.0756 32.3976 37.4845 31.4796 37.5186C30.5617 37.5526 29.7233 37.2346 28.8764 36.9336C27.9044 36.5787 26.8131 36.0988 26.4721 35.0397C26.1083 33.9039 26.8728 32.6204 27.8732 32.1178C28.9417 31.5783 29.2799 31.601 30.8004 31.8338C31.9713 32.0127 33.0938 30.9167 34.3244 31.3596C35.4555 31.7629 36.345 33.0435 36.0921 34.2985Z"/><defs><linearGradient id="paint0_linear_24_251" x1="31.15" x2="31.085" y1="41" y2="50.583" gradientUnits="userSpaceOnUse"><stop stop-color="#964138"/><stop offset="1" stop-color="#C7776E"/></linearGradient><linearGradient id="paint1_linear_24_251" x1="31.656" x2="29.267" y1="31.553" y2="18.587" gradientUnits="userSpaceOnUse"><stop stop-color="#964138"/><stop offset=".19" stop-color="#A8554C"/><stop offset=".45" stop-color="#B9685F"/><stop offset=".72" stop-color="#C4736A"/><stop offset="1" stop-color="#C7776E"/></linearGradient><linearGradient id="paint2_linear_24_251" x1="31.517" x2="32.115" y1="32.762" y2="36.951" gradientUnits="userSpaceOnUse"><stop stop-color="#964138"/><stop offset=".07" stop-color="#A55249"/><stop offset=".18" stop-color="#B4635A"/><stop offset=".31" stop-color="#BF6E65"/><stop offset=".49" stop-color="#C5756C"/><stop offset="1" stop-color="#C7776E"/></linearGradient><linearGradient id="paint3_linear_24_251" x1="33.097" x2="29.553" y1="35.57" y2="32.499" gradientUnits="userSpaceOnUse"><stop stop-color="#964138"/><stop offset=".07" stop-color="#A55249"/><stop offset=".18" stop-color="#B4635A"/><stop offset=".31" stop-color="#BF6E65"/><stop offset=".49" stop-color="#C5756C"/><stop offset="1" stop-color="#C7776E"/></linearGradient><linearGradient id="paint4_linear_24_251" x1="36.473" x2="34.019" y1="22.852" y2="21.371" gradientUnits="userSpaceOnUse"><stop stop-color="#5F0030"/><stop offset="1" stop-color="#C7776E"/></linearGradient><linearGradient id="paint5_linear_24_251" x1="25.907" x2="28.364" y1="22.852" y2="21.371" gradientUnits="userSpaceOnUse"><stop stop-color="#5F0030"/><stop offset="1" stop-color="#C7776E"/></linearGradient></defs></svg>