<svg width="294" height="28" viewBox="0 0 294 28" fill="none" xmlns="http://www.w3.org/2000/svg">
<g clip-path="url(#clip0_24_478)">
<path d="M292.25 11.375H289.261C289.066 10.6914 288.796 10.0318 288.454 9.40835L290.244 7.61862C290.325 7.53741 290.389 7.44098 290.433 7.33483C290.477 7.22868 290.5 7.1149 290.5 7C290.5 6.8851 290.477 6.77132 290.433 6.66517C290.389 6.55902 290.325 6.46259 290.244 6.38138L287.619 3.75638C287.537 3.67509 287.441 3.61061 287.335 3.56661C287.229 3.52261 287.115 3.49997 287 3.49997C286.885 3.49997 286.771 3.52261 286.665 3.56661C286.559 3.61061 286.463 3.67509 286.381 3.75638L284.592 5.54566C283.968 5.20413 283.309 4.93341 282.625 4.73856V1.75C282.625 1.51794 282.533 1.29538 282.369 1.13128C282.205 0.967187 281.982 0.875 281.75 0.875H278.25C278.018 0.875 277.795 0.967187 277.631 1.13128C277.467 1.29538 277.375 1.51794 277.375 1.75V4.73856C276.691 4.93335 276.032 5.20407 275.408 5.54566L273.619 3.75638C273.537 3.67509 273.441 3.61061 273.335 3.56661C273.229 3.52261 273.115 3.49997 273 3.49997C272.885 3.49997 272.771 3.52261 272.665 3.56661C272.559 3.61061 272.463 3.67509 272.381 3.75638L269.756 6.38138C269.675 6.46259 269.611 6.55902 269.567 6.66517C269.523 6.77132 269.5 6.8851 269.5 7C269.5 7.1149 269.523 7.22868 269.567 7.33483C269.611 7.44098 269.675 7.53741 269.756 7.61862L271.546 9.40835C271.204 10.0317 270.933 10.6914 270.739 11.375H267.75C267.518 11.375 267.295 11.4672 267.131 11.6313C266.967 11.7954 266.875 12.0179 266.875 12.25V15.75C266.875 15.9821 266.967 16.2046 267.131 16.3687C267.295 16.5328 267.518 16.625 267.75 16.625H270.739C270.933 17.3086 271.204 17.9683 271.546 18.5917L269.756 20.3814C269.675 20.4626 269.611 20.559 269.567 20.6652C269.523 20.7713 269.5 20.8851 269.5 21C269.5 21.1149 269.523 21.2287 269.567 21.3348C269.611 21.441 269.675 21.5374 269.756 21.6186L272.381 24.2436C272.463 24.3249 272.559 24.3894 272.665 24.4334C272.771 24.4774 272.885 24.5 273 24.5C273.115 24.5 273.229 24.4774 273.335 24.4334C273.441 24.3894 273.537 24.3249 273.619 24.2436L275.408 22.4543C276.032 22.7959 276.691 23.0666 277.375 23.2614V26.25C277.375 26.4821 277.467 26.7046 277.631 26.8687C277.795 27.0328 278.018 27.125 278.25 27.125H281.75C281.982 27.125 282.205 27.0328 282.369 26.8687C282.533 26.7046 282.625 26.4821 282.625 26.25V23.2614C283.309 23.0666 283.968 22.7959 284.592 22.4543L286.381 24.2436C286.463 24.3249 286.559 24.3894 286.665 24.4334C286.771 24.4774 286.885 24.5 287 24.5C287.115 24.5 287.229 24.4774 287.335 24.4334C287.441 24.3894 287.537 24.3249 287.619 24.2436L290.244 21.6186C290.325 21.5374 290.389 21.441 290.433 21.3348C290.477 21.2287 290.5 21.1149 290.5 21C290.5 20.8851 290.477 20.7713 290.433 20.6652C290.389 20.559 290.325 20.4626 290.244 20.3814L288.454 18.5917C288.796 17.9682 289.066 17.3086 289.261 16.625H292.25C292.482 16.625 292.705 16.5328 292.869 16.3687C293.033 16.2046 293.125 15.9821 293.125 15.75V12.25C293.125 12.0179 293.033 11.7954 292.869 11.6313C292.705 11.4672 292.482 11.375 292.25 11.375ZM280 18.375C279.135 18.375 278.289 18.1184 277.569 17.6377C276.85 17.1569 276.289 16.4737 275.958 15.6742C275.627 14.8748 275.54 13.9951 275.709 13.1465C275.878 12.2978 276.295 11.5183 276.906 10.9064C277.518 10.2946 278.298 9.87787 279.146 9.70906C279.995 9.54025 280.875 9.62689 281.674 9.95803C282.474 10.2892 283.157 10.8499 283.638 11.5694C284.118 12.2888 284.375 13.1347 284.375 14C284.375 15.1603 283.914 16.2731 283.094 17.0936C282.273 17.9141 281.16 18.375 280 18.375Z" fill="#F4BCB8"/>
</g>
<g clip-path="url(#clip1_24_478)">
<path d="M26.7585 9.78776L14.5085 1.03776C14.36 0.931898 14.1823 0.875 14 0.875C13.8177 0.875 13.6399 0.931898 13.4915 1.03776L1.24153 9.78776C1.148 9.85453 1.06853 9.93907 1.00767 10.0366C0.946812 10.134 0.905747 10.2426 0.886823 10.3559C0.8679 10.4693 0.871488 10.5852 0.897384 10.6972C0.92328 10.8092 0.970975 10.9149 1.03775 11.0085C1.10452 11.102 1.18906 11.1815 1.28654 11.2423C1.38403 11.3032 1.49254 11.3443 1.6059 11.3632C1.71925 11.3821 1.83522 11.3785 1.94719 11.3526C2.05916 11.3267 2.16493 11.279 2.25846 11.2123L4.375 9.70034V26.25C4.375 26.4821 4.46718 26.7046 4.63128 26.8687C4.79537 27.0328 5.01793 27.125 5.25 27.125H22.75C22.9821 27.125 23.2046 27.0328 23.3687 26.8687C23.5328 26.7046 23.625 26.4821 23.625 26.25V9.70034L25.7415 11.2123C25.8351 11.279 25.9408 11.3267 26.0528 11.3526C26.1648 11.3785 26.2807 11.3821 26.3941 11.3632C26.5075 11.3443 26.616 11.3032 26.7135 11.2423C26.8109 11.1815 26.8955 11.102 26.9622 11.0085C27.029 10.9149 27.0767 10.8092 27.1026 10.6972C27.1285 10.5852 27.1321 10.4693 27.1132 10.3559C27.0942 10.2426 27.0532 10.134 26.9923 10.0366C26.9315 9.93907 26.852 9.85453 26.7585 9.78776ZM9.625 24.5V18.375C9.62576 17.679 9.90257 17.0118 10.3947 16.5197C10.8868 16.0276 11.554 15.7508 12.25 15.75H15.75C16.446 15.7508 17.1132 16.0276 17.6053 16.5197C18.0974 17.0118 18.3742 17.679 18.375 18.375V24.5H9.625Z" fill="#FA7268"/>
</g>
<g clip-path="url(#clip2_24_478)">
<path d="M98.2812 11.3739C98.7472 11.3739 99.125 10.9822 99.125 10.4989C99.125 10.0157 98.7472 9.6239 98.2812 9.6239C97.8153 9.6239 97.4375 10.0157 97.4375 10.4989C97.4375 10.9822 97.8153 11.3739 98.2812 11.3739Z" fill="#F4BCB8"/>
<path d="M106.719 18.3739C107.185 18.3739 107.562 17.9822 107.562 17.4989C107.562 17.0157 107.185 16.6239 106.719 16.6239C106.253 16.6239 105.875 17.0157 105.875 17.4989C105.875 17.9822 106.253 18.3739 106.719 18.3739Z" fill="#F4BCB8"/>
<path d="M113.08 9.81394C112.112 8.82245 111.437 7.56421 111.136 6.18786C109.816 1.92486 108.464 1.21838 104.555 2.06179C103.213 2.46893 101.787 2.46893 100.446 2.06179C96.5603 1.22871 95.1936 1.89292 93.8646 6.18873C93.5633 7.5644 92.8889 8.82197 91.9208 9.81307C89.1717 13.1037 89.1325 14.8481 91.9208 18.184C92.889 19.1756 93.5633 20.4339 93.8642 21.8101C95.2058 26.142 96.5972 26.7626 100.445 25.9362C101.787 25.5289 103.213 25.5289 104.555 25.9362C108.434 26.7679 109.804 26.1127 111.136 21.8093C111.437 20.4336 112.112 19.176 113.08 18.1849C115.829 14.8943 115.868 13.15 113.08 9.81394ZM95.75 10.499C95.75 9.9798 95.8985 9.47229 96.1766 9.04061C96.4547 8.60893 96.8501 8.27248 97.3126 8.0738C97.7751 7.87512 98.2841 7.82313 98.7751 7.92442C99.2661 8.0257 99.7171 8.27571 100.071 8.64282C100.425 9.00994 100.666 9.47767 100.764 9.98687C100.862 10.4961 100.811 11.0239 100.62 11.5035C100.428 11.9832 100.104 12.3931 99.6875 12.6816C99.2713 12.97 98.7819 13.124 98.2812 13.124C97.6101 13.1232 96.9667 12.8464 96.4922 12.3543C96.0177 11.8622 95.7507 11.1949 95.75 10.499ZM98.034 19.8677C97.875 20.0277 97.6617 20.1163 97.4401 20.1146C97.2186 20.1128 97.0066 20.0208 96.8499 19.8583C96.6933 19.6958 96.6045 19.476 96.6028 19.2462C96.6012 19.0165 96.6867 18.7953 96.841 18.6304L106.966 8.13035C107.125 7.97039 107.338 7.8817 107.56 7.88346C107.781 7.88521 107.993 7.97727 108.15 8.13974C108.307 8.30221 108.395 8.52206 108.397 8.75181C108.399 8.98156 108.313 9.20278 108.159 9.36769L98.034 19.8677ZM106.719 20.124C106.218 20.124 105.729 19.97 105.312 19.6816C104.896 19.3931 104.572 18.9832 104.38 18.5035C104.189 18.0239 104.138 17.4961 104.236 16.9869C104.334 16.4777 104.575 16.0099 104.929 15.6428C105.283 15.2757 105.734 15.0257 106.225 14.9244C106.716 14.8231 107.225 14.8751 107.687 15.0738C108.15 15.2725 108.545 15.6089 108.823 16.0406C109.102 16.4723 109.25 16.9798 109.25 17.499C109.249 18.1949 108.982 18.8622 108.508 19.3543C108.033 19.8464 107.39 20.1232 106.719 20.124Z" fill="#F4BCB8"/>
</g>
<g clip-path="url(#clip3_24_478)">
<path d="M192.75 0.875C192.518 0.875 192.295 0.967187 192.131 1.13128C191.967 1.29538 191.875 1.51794 191.875 1.75V12.25C191.875 12.4821 191.967 12.7046 192.131 12.8687C192.295 13.0328 192.518 13.125 192.75 13.125H203.25C203.482 13.125 203.705 13.0328 203.869 12.8687C204.033 12.7046 204.125 12.4821 204.125 12.25C204.122 9.23421 202.922 6.34291 200.79 4.21042C198.657 2.07793 195.766 0.878404 192.75 0.875Z" fill="#F4BCB8"/>
<path d="M199.75 14.875H190.125V5.25C190.125 5.01794 190.033 4.79538 189.869 4.63128C189.705 4.46719 189.482 4.375 189.25 4.375C187 4.375 184.801 5.04213 182.93 6.29203C181.06 7.54193 179.602 9.31847 178.741 11.397C177.88 13.4755 177.655 15.7626 178.094 17.9692C178.532 20.1757 179.616 22.2025 181.207 23.7933C182.797 25.3842 184.824 26.4675 187.031 26.9064C189.237 27.3453 191.525 27.1201 193.603 26.2591C195.682 25.3982 197.458 23.9402 198.708 22.0696C199.958 20.199 200.625 17.9998 200.625 15.75C200.625 15.5179 200.533 15.2954 200.369 15.1313C200.205 14.9672 199.982 14.875 199.75 14.875Z" fill="#F4BCB8"/>
</g>
<defs>
<clipPath id="clip0_24_478">
<rect width="28" height="28" fill="white" transform="translate(266)"/>
</clipPath>
<clipPath id="clip1_24_478">
<rect width="28" height="28" fill="white"/>
</clipPath>
<clipPath id="clip2_24_478">
<rect width="27" height="28" fill="white" transform="translate(89)"/>
</clipPath>
<clipPath id="clip3_24_478">
<rect width="28" height="28" fill="white" transform="translate(177)"/>
</clipPath>
</defs>
</svg>
