<svg width="27" height="27" viewBox="0 0 27 27" fill="none" xmlns="http://www.w3.org/2000/svg">
<path d="M26.6229 9.16732L14.023 0.167406C13.8703 0.0585229 13.6875 0 13.5 0C13.3125 0 13.1297 0.0585229 12.977 0.167406L0.377129 9.16732C0.280924 9.236 0.199188 9.32296 0.136588 9.42323C0.0739882 9.52349 0.0317506 9.63511 0.0122866 9.7517C-0.00717726 9.86829 -0.00348627 9.98757 0.023149 10.1027C0.0497842 10.2179 0.098842 10.3267 0.167521 10.4229C0.236201 10.5191 0.323157 10.6008 0.423424 10.6634C0.523692 10.726 0.635308 10.7683 0.751899 10.7877C0.868491 10.8072 0.987774 10.8035 1.10294 10.7769C1.2181 10.7502 1.32689 10.7012 1.4231 10.6325L3.60009 9.07741V26.0998C3.60009 26.3385 3.69491 26.5674 3.86369 26.7362C4.03247 26.9049 4.26139 26.9998 4.50008 26.9998H22.4999C22.7386 26.9998 22.9675 26.9049 23.1363 26.7362C23.3051 26.5674 23.3999 26.3385 23.3999 26.0998V9.07741L25.5769 10.6325C25.6731 10.7012 25.7819 10.7502 25.8971 10.7769C26.0122 10.8035 26.1315 10.8072 26.2481 10.7877C26.3647 10.7683 26.4763 10.726 26.5766 10.6634C26.6768 10.6008 26.7638 10.5191 26.8325 10.4229C26.9012 10.3267 26.9502 10.2179 26.9768 10.1027C27.0035 9.98757 27.0072 9.86829 26.9877 9.7517C26.9682 9.63511 26.926 9.52349 26.8634 9.42323C26.8008 9.32296 26.7191 9.236 26.6229 9.16732ZM9.00004 24.2998V17.9998C9.00083 17.284 9.28554 16.5977 9.79171 16.0915C10.2979 15.5854 10.9842 15.3007 11.7 15.2999H15.3C16.0158 15.3007 16.7021 15.5854 17.2083 16.0915C17.7145 16.5977 17.9992 17.284 18 17.9998V24.2998H9.00004Z" fill="#F4BCB8"/>
</svg>
