<svg width="19" height="22" viewBox="0 0 19 22" fill="none" xmlns="http://www.w3.org/2000/svg">
<path d="M17.1111 2.44444H12.8333V1.83333C12.8328 1.34727 12.6395 0.881262 12.2958 0.53756C11.9521 0.193859 11.4861 0.000533793 11 0H7.33333C6.84727 0.000533793 6.38126 0.193859 6.03756 0.53756C5.69386 0.881262 5.50053 1.34727 5.5 1.83333V2.44444H1.22222C0.898183 2.44482 0.587522 2.57371 0.358392 2.80284C0.129261 3.03197 0.000372004 3.34263 0 3.66667V4.88889C0.000372004 5.21293 0.129261 5.52359 0.358392 5.75272C0.587522 5.98185 0.898183 6.11074 1.22222 6.11111H1.42609L2.29289 19.15C2.34642 19.9225 2.69065 20.646 3.25625 21.1748C3.82185 21.7036 4.56681 21.9985 5.34111 22H12.9922C13.7666 21.9985 14.5116 21.7036 15.0772 21.1748C15.6428 20.646 15.9871 19.9225 16.0406 19.15L16.9072 6.11111H17.1111C17.4352 6.11074 17.7458 5.98185 17.9749 5.75272C18.2041 5.52359 18.333 5.21293 18.3333 4.88889V3.66667C18.333 3.34263 18.2041 3.03197 17.9749 2.80284C17.7458 2.57371 17.4352 2.44482 17.1111 2.44444ZM6.72222 1.83333C6.72238 1.67131 6.78682 1.51596 6.90139 1.40139C7.01596 1.28682 7.17131 1.22238 7.33333 1.22222H11C11.162 1.22238 11.3174 1.28682 11.4319 1.40139C11.5465 1.51596 11.6109 1.67131 11.6111 1.83333V2.44444H6.72222V1.83333ZM14.8207 19.0689C14.7885 19.5321 14.582 19.966 14.2427 20.2831C13.9034 20.6002 13.4566 20.7769 12.9922 20.7778H5.34111C4.87671 20.777 4.42986 20.6002 4.09056 20.2831C3.75126 19.966 3.54472 19.5322 3.51254 19.0689L2.65131 6.11111H15.682L14.8207 19.0689ZM1.22222 4.88889V3.66667H17.1111L17.1117 4.88889H1.22222ZM8.55556 15.8889V9.77778C8.55556 9.6157 8.61994 9.46026 8.73455 9.34566C8.84915 9.23105 9.00459 9.16667 9.16667 9.16667C9.32874 9.16667 9.48418 9.23105 9.59879 9.34566C9.71339 9.46026 9.77778 9.6157 9.77778 9.77778V15.8889C9.77778 16.051 9.71339 16.2064 9.59879 16.321C9.48418 16.4356 9.32874 16.5 9.16667 16.5C9.00459 16.5 8.84915 16.4356 8.73455 16.321C8.61994 16.2064 8.55556 16.051 8.55556 15.8889ZM5.50299 15.95L4.89188 9.83889C4.87701 9.67828 4.92623 9.51831 5.02881 9.39385C5.1314 9.26938 5.27903 9.19052 5.43952 9.17445C5.60001 9.15839 5.76035 9.20642 5.88557 9.30808C6.01079 9.40975 6.09074 9.55679 6.10799 9.71716L6.71911 15.8283C6.73398 15.9889 6.68476 16.1488 6.58218 16.2733C6.47959 16.3978 6.33196 16.4766 6.17147 16.4927C6.01098 16.5088 5.85064 16.4607 5.72542 16.3591C5.6002 16.2574 5.52025 16.1104 5.50299 15.95ZM11.6141 15.8283L12.2252 9.71716C12.2327 9.63687 12.2559 9.55884 12.2936 9.48758C12.3314 9.41632 12.3828 9.35323 12.445 9.30194C12.5073 9.25066 12.579 9.21219 12.6562 9.18877C12.7333 9.16534 12.8144 9.15742 12.8946 9.16545C12.9748 9.17348 13.0527 9.19731 13.1237 9.23556C13.1946 9.27382 13.2573 9.32574 13.3082 9.38834C13.359 9.45094 13.3969 9.52298 13.4198 9.60031C13.4426 9.67763 13.45 9.75872 13.4413 9.83889L12.8302 15.95C12.813 16.1104 12.733 16.2574 12.6078 16.3591C12.4826 16.4607 12.3222 16.5088 12.1617 16.4927C12.0013 16.4766 11.8536 16.3978 11.751 16.2733C11.6485 16.1488 11.5992 15.9889 11.6141 15.8283Z" fill="#FA7268"/>
</svg>
