<svg width="30" height="30" viewBox="0 0 30 30" fill="none" xmlns="http://www.w3.org/2000/svg">
<path d="M1.00003 11H28.9996C29.2157 11.0001 29.426 10.9302 29.599 10.8008C29.7721 10.6713 29.8985 10.4893 29.9594 10.282C30.0203 10.0746 30.0125 9.85312 29.937 9.65064C29.8614 9.44816 29.7224 9.27559 29.5406 9.15877L15.5408 0.158918C15.3796 0.0551685 15.192 0 15.0003 0C14.8086 0 14.621 0.0551685 14.4598 0.158918L0.460035 9.15877C0.2783 9.27554 0.139264 9.44802 0.063732 9.65041C-0.0118 9.85279 -0.0197664 10.0742 0.0410247 10.2815C0.101816 10.4888 0.228096 10.6708 0.400968 10.8003C0.57384 10.9298 0.784009 10.9999 1.00003 11Z" fill="#404A7B"/>
<path d="M28.9995 23.9999H0.999984C0.447708 23.9999 0 24.4476 0 24.9998V28.9998C0 29.552 0.447708 29.9998 0.999984 29.9998H28.9995C29.5518 29.9998 29.9995 29.552 29.9995 28.9998V24.9998C29.9995 24.4476 29.5518 23.9999 28.9995 23.9999Z" fill="#404A7B"/>
<path d="M0 13V14C0 14.2652 0.105355 14.5196 0.292888 14.7071C0.480422 14.8946 0.734772 15 0.999984 15H3.99993V21.9999H10.9998V15H18.9997V21.9999H25.9996V15H28.9995C29.2647 15 29.5191 14.8946 29.7066 14.7071C29.8942 14.5196 29.9995 14.2652 29.9995 14V13H0Z" fill="#404A7B"/>
</svg>
