<svg width="73" height="30" viewBox="0 0 73 30" fill="none" xmlns="http://www.w3.org/2000/svg">
<path d="M10.3607 5.03708H0C0 2.25582 2.31841 0 5.1799 0C8.04138 0 10.3598 2.25496 10.3598 5.03623L10.3607 5.03708Z" fill="#BA1E13"/>
<path d="M72.9998 5.03708H62.6392C62.6392 2.25582 64.9576 0 67.8199 0C70.6823 0 72.9998 2.25496 72.9998 5.03623V5.03708Z" fill="#BA1E13"/>
<path d="M28.3647 30C18.3834 30 10.2628 22.1046 10.2628 12.401V5.03623H10.2742C10.2284 2.34396 7.96108 0.166876 5.17969 0.166876V0H67.8199V0.166876C65.0103 0.166876 62.7254 2.38932 62.7254 5.12009V12.401C62.7254 22.1055 54.6048 30 44.6244 30H28.3656H28.3647Z" fill="url(#paint0_linear_11_50)"/>
<path d="M67.8199 0C64.9584 0 62.64 2.25496 62.64 5.03623V12.3172C62.64 21.9908 54.574 29.8331 44.6244 29.8331H28.3656C18.415 29.8331 10.349 21.9908 10.349 12.3172V5.03623H10.3613C10.3605 2.25496 8.04117 0 5.17969 0H67.8199Z" fill="url(#paint1_linear_11_50)"/>
<path d="M20.2847 9.08232C20.2847 7.23984 21.5337 6.03406 23.2562 6.03406C23.8846 6.03406 24.5307 6.16841 24.9699 6.37722L24.8493 7.39902C24.3494 7.20647 23.8846 7.06441 23.2562 7.06441C22.0846 7.06441 21.4905 7.90991 21.4905 9.08232C21.4905 10.2547 22.0846 11.1002 23.2562 11.1002C23.8846 11.1002 24.3502 10.9582 24.8493 10.7656L24.9699 11.7874C24.5307 11.9971 23.8846 12.1306 23.2562 12.1306C21.5337 12.1306 20.2847 10.9248 20.2847 9.08232Z" fill="white"/>
<path d="M25.4531 9.08232C25.4531 7.23984 26.7021 6.03406 28.4246 6.03406C30.1472 6.03406 31.3961 7.23984 31.3961 9.08232C31.3961 10.9248 30.1472 12.1306 28.4246 12.1306C26.7021 12.1306 25.4531 10.9248 25.4531 9.08232ZM26.659 9.08232C26.659 10.2547 27.2531 11.1002 28.4246 11.1002C29.5962 11.1002 30.1903 10.2547 30.1903 9.08232C30.1903 7.90991 29.5962 7.06441 28.4246 7.06441C27.2531 7.06441 26.659 7.90991 26.659 9.08232Z" fill="white"/>
<path d="M37.2969 12.0133L36.7803 8.0862L35.2382 10.7827L33.6882 8.09476L33.1715 12.0142H32.0264L32.8617 6.15215H33.7656L35.2382 8.82388L36.7019 6.15215H37.6067L38.442 12.0142H37.2969V12.0133Z" fill="white"/>
<path d="M39.4419 12.0133V6.1513H40.5448V12.0133H39.4419Z" fill="white"/>
<path d="M45.7289 12.0133L42.973 7.99378V12.0133H41.8701V6.1513H42.9554L45.5308 9.93639V6.1513H46.6337V12.0133H45.7297H45.7289Z" fill="white"/>
<path d="M47.5985 9.07377C47.5985 7.23984 48.8387 6.03406 50.6044 6.03406C51.1897 6.03406 51.9739 6.16841 52.4132 6.37722L52.2926 7.39902C51.8278 7.21503 51.1642 7.06441 50.6299 7.06441C49.3721 7.06441 48.8035 7.91847 48.8035 9.05751C48.8035 10.2547 49.432 11.1011 50.6809 11.1011C50.9309 11.1011 51.2152 11.0677 51.5074 11.0087V9.96206H50.8447V9.07462H52.6103V11.6873C52.1711 11.9303 51.2319 12.1314 50.5436 12.1314C48.8554 12.1314 47.5977 10.9257 47.5977 9.07462L47.5985 9.07377Z" fill="white"/>
<path d="M24.8245 21.7529L24.9539 20.53C25.2814 20.8398 25.9441 21.1496 26.849 21.1496C27.495 21.1496 27.9254 20.9904 27.9254 20.5129C27.9254 19.9181 27.2539 19.7093 26.5215 19.4663C25.6686 19.1813 24.7383 18.8886 24.7383 17.842C24.7383 17.0633 25.2893 16.0834 26.9176 16.0834C27.7441 16.0834 28.5284 16.335 28.8382 16.5353L28.7264 17.6324C28.0803 17.2892 27.5382 17.1052 26.9608 17.1052C26.496 17.1052 25.8579 17.2224 25.8579 17.7248C25.8579 18.1937 26.4177 18.3777 27.0725 18.5703C28.0117 18.8467 29.1568 19.1813 29.1568 20.471C29.1568 21.141 28.8558 22.1791 26.8226 22.1791C25.9098 22.1791 25.1687 21.9694 24.8245 21.752V21.7529Z" fill="white"/>
<path d="M29.708 19.1317C29.708 17.2892 30.957 16.0834 32.6795 16.0834C34.402 16.0834 35.651 17.2892 35.651 19.1317C35.651 20.9742 34.402 22.1799 32.6795 22.1799C30.957 22.1799 29.708 20.9742 29.708 19.1317ZM30.9139 19.1317C30.9139 20.3041 31.508 21.1496 32.6795 21.1496C33.851 21.1496 34.4452 20.3041 34.4452 19.1317C34.4452 17.9593 33.851 17.1138 32.6795 17.1138C31.508 17.1138 30.9139 17.9593 30.9139 19.1317Z" fill="white"/>
<path d="M36.2549 19.1317C36.2549 17.2892 37.5039 16.0834 39.2264 16.0834C40.9489 16.0834 42.1979 17.2892 42.1979 19.1317C42.1979 20.9742 40.9489 22.1799 39.2264 22.1799C37.5039 22.1799 36.2549 20.9742 36.2549 19.1317ZM37.4607 19.1317C37.4607 20.3041 38.0549 21.1496 39.2264 21.1496C40.3979 21.1496 40.992 20.3041 40.992 19.1317C40.992 17.9593 40.3979 17.1138 39.2264 17.1138C38.0549 17.1138 37.4607 17.9593 37.4607 19.1317Z" fill="white"/>
<path d="M47.0213 22.0627L44.2655 18.0431V22.0627H43.1626V16.2006H44.2479L46.8233 19.9857V16.2006H47.9262V22.0627H47.0222H47.0213Z" fill="white"/>
<defs>
<linearGradient id="paint0_linear_11_50" x1="36.5002" y1="30.5888" x2="36.5002" y2="-6.82907" gradientUnits="userSpaceOnUse">
<stop stop-color="#D62222"/>
<stop offset="0.46" stop-color="#E61F1F"/>
<stop offset="1" stop-color="#FF1C1C"/>
</linearGradient>
<linearGradient id="paint1_linear_11_50" x1="36.5002" y1="37.6044" x2="36.5002" y2="-0.059048" gradientUnits="userSpaceOnUse">
<stop stop-color="#D62222"/>
<stop offset="0.46" stop-color="#E61F1F"/>
<stop offset="1" stop-color="#FF1C1C"/>
</linearGradient>
</defs>
</svg>
