<svg width="62" height="64" viewBox="0 0 62 64" fill="none" xmlns="http://www.w3.org/2000/svg">
<path d="M52.9203 52.8751C65.0266 40.7792 65.0266 21.1678 52.9203 9.07193C40.8141 -3.02397 21.186 -3.02397 9.07973 9.07193C-3.02652 21.1678 -3.02652 40.7792 9.07973 52.8751C21.186 64.971 40.8141 64.971 52.9203 52.8751Z" fill="#FAE4D9"/>
<path d="M38.0644 51.0205H24.244C24.244 51.0205 26.8785 43.1068 24.244 33.0748C23.5477 30.4198 38.684 30.4084 38.0644 33.0748C36.1262 41.3974 38.0644 51.0205 38.0644 51.0205Z" fill="#C7776E"/>
<path d="M38.0644 51.0205H24.244C24.244 51.0205 26.8785 43.1068 24.244 33.0748C23.5477 30.4198 38.684 30.4084 38.0644 33.0748C36.1262 41.3974 38.0644 51.0205 38.0644 51.0205Z" fill="url(#paint0_linear_28_2644)"/>
<path d="M42.6543 24.505C42.6543 31.3199 40.4405 34.4121 37.9538 36.3629C36.385 37.5952 34.7082 38.3704 33.4066 39.3245C32.7513 39.8085 31.9579 40.0696 31.143 40.0696C30.3281 40.0696 29.5347 39.8085 28.8794 39.3245C27.7995 38.5294 26.4581 37.7997 25.1337 36.8229C22.3486 34.7727 19.6431 31.6379 19.6431 24.505C19.6431 16.1 24.7927 9.28802 31.1444 9.28802C37.4962 9.28802 42.6543 16.1 42.6543 24.505Z" fill="#C7776E"/>
<path d="M21.314 21.2226C21.314 21.2226 21.4959 17.3864 22.3997 16.1512C23.3034 14.916 37.857 14.3793 39.0393 15.6685C40.2215 16.9576 40.6166 21.8643 40.6166 21.8643C40.6166 21.8643 42.8532 21.0124 42.7992 20.1038C42.5605 16.1057 41.7903 13.7376 41.0457 12.3547C40.1107 10.6141 41.9864 7.00507 42.299 5.05432L36.5128 8.20903L37.3654 5.43482L32.2442 9.3704L32.5966 7.24643L28.399 9.28805C28.399 9.28805 24.7045 8.43619 21.2941 11.4631C19.2252 13.306 19.0859 20.0953 19.0859 20.0953L21.314 21.2226Z" fill="#FCE096"/>
<g style="mix-blend-mode:color-burn">
<path d="M42.7991 23.852C42.7993 24.9955 42.6908 26.1364 42.4752 27.2594C41.9034 26.9811 41.424 26.5439 41.0945 26.0004C40.765 25.4568 40.5993 24.8298 40.6173 24.1946C40.6353 23.5593 40.8362 22.9427 41.1959 22.4186C41.5557 21.8945 42.059 21.4852 42.6457 21.2396C42.7489 22.1066 42.8002 22.9789 42.7991 23.852Z" fill="#E8E8E8"/>
</g>
<path d="M42.5235 26.595C41.8916 26.4231 41.3249 26.068 40.8951 25.5743C40.4652 25.0807 40.1916 24.4708 40.1087 23.8218C40.0258 23.1728 40.1374 22.5138 40.4293 21.9281C40.7213 21.3424 41.1805 20.8564 41.749 20.5316C42.3174 20.2067 42.9695 20.0575 43.6227 20.103C44.276 20.1484 44.9011 20.3863 45.419 20.7867C45.9369 21.1871 46.3244 21.732 46.5324 22.3524C46.7403 22.9728 46.7595 23.6409 46.5874 24.2722C46.3561 25.1182 45.7982 25.838 45.0363 26.2734C44.2743 26.7089 43.3706 26.8245 42.5235 26.595Z" fill="#C7776E"/>
<g style="mix-blend-mode:color-burn">
<path d="M45.34 23.9315C45.4435 23.5419 45.4002 23.1279 45.2183 22.7681C45.0364 22.4084 44.7286 22.1279 44.3533 21.98C43.978 21.8321 43.5615 21.8271 43.1827 21.966C42.804 22.1049 42.4895 22.3779 42.2991 22.7332C42.5319 22.8024 42.7465 22.9224 42.9273 23.0846C43.1081 23.2467 43.2505 23.447 43.3443 23.6709C43.4382 23.8948 43.481 24.1367 43.4698 24.3792C43.4586 24.6217 43.3936 24.8587 43.2795 25.073H43.3193C43.7388 25.1882 44.1868 25.1328 44.5654 24.9189C44.9441 24.705 45.2225 24.35 45.34 23.9315Z" fill="#919191"/>
</g>
<g style="mix-blend-mode:color-burn">
<path d="M19.6826 23.852C19.6825 24.9955 19.791 26.1364 20.0066 27.2594C20.5784 26.9811 21.0578 26.5439 21.3873 26.0004C21.7168 25.4568 21.8825 24.8298 21.8645 24.1946C21.8465 23.5593 21.6456 22.9427 21.2858 22.4186C20.9261 21.8945 20.4227 21.4852 19.8361 21.2396C19.7329 22.1066 19.6816 22.9789 19.6826 23.852Z" fill="#E8E8E8"/>
</g>
<path d="M19.9584 26.595C20.5903 26.4231 21.157 26.068 21.5868 25.5743C22.0166 25.0807 22.2903 24.4708 22.3732 23.8218C22.4561 23.1728 22.3445 22.5138 22.0525 21.9281C21.7606 21.3424 21.3013 20.8564 20.7329 20.5316C20.1645 20.2067 19.5124 20.0575 18.8591 20.103C18.2059 20.1484 17.5807 20.3863 17.0628 20.7867C16.5449 21.1871 16.1575 21.732 15.9495 22.3524C15.7415 22.9728 15.7223 23.6409 15.8944 24.2722C16.1258 25.1182 16.6837 25.838 17.4456 26.2734C18.2075 26.7089 19.1112 26.8245 19.9584 26.595Z" fill="#C7776E"/>
<g style="mix-blend-mode:color-burn">
<path d="M17.142 23.9315C17.0443 23.5443 17.0909 23.1347 17.2732 22.7794C17.4556 22.424 17.7611 22.147 18.1328 22.0003C18.5046 21.8535 18.9171 21.847 19.2933 21.9819C19.6695 22.1167 19.9837 22.3838 20.1772 22.7332C19.7664 22.856 19.4199 23.1344 19.2117 23.5089C19.0036 23.8835 18.9503 24.3246 19.0632 24.7379C19.0941 24.8546 19.1389 24.9671 19.1968 25.073H19.157C18.7383 25.1865 18.2918 25.1302 17.9144 24.9165C17.5371 24.7027 17.2595 24.3487 17.142 23.9315Z" fill="#919191"/>
</g>
<path d="M29.7915 22.9206C29.7221 23.9724 29.2868 24.9668 28.5609 25.7317C28.0266 26.2513 27.3247 26.5836 26.833 27.1515C26.3413 27.7194 26.1453 28.6791 26.7136 29.1562C27.0518 29.4401 27.5406 29.4799 27.9925 29.4884L34.404 29.6446C34.7398 29.685 35.0801 29.6247 35.3816 29.4714C35.8704 29.159 35.9045 28.4293 35.6658 27.9039C35.4271 27.3786 34.9553 26.9754 34.6086 26.5126C33.3183 24.7947 33.5002 22.3953 32.6562 20.4218C32.2384 19.4478 30.951 18.2893 29.9762 19.3996C29.297 20.1606 29.8909 21.9835 29.7915 22.9206Z" fill="url(#paint1_linear_28_2644)"/>
<path d="M39.4286 21.0579C37.1856 20.6011 34.8881 20.472 32.6079 20.6745C32.5954 19.3934 32.808 18.1199 33.236 16.9122C34.8076 17.0201 36.2599 17.1961 37.7092 17.8038C38.2437 17.9859 38.7116 18.323 39.0535 18.7721C39.3888 19.3087 39.4599 20.4161 39.4286 21.0579Z" fill="#FCE096"/>
<path d="M22.7749 21.0579C25.0179 20.6011 27.3154 20.472 29.5956 20.6745C29.6131 19.3946 29.4073 18.1215 28.9874 16.9122C27.4129 17.0201 25.9636 17.1961 24.5142 17.8038C23.9787 17.9854 23.5097 18.3226 23.1671 18.7721C22.8118 19.3087 22.7351 20.4161 22.7749 21.0579Z" fill="#FCE096"/>
<path d="M29.4533 32.9384C29.629 32.7657 29.8422 32.6357 30.0763 32.5584C30.3103 32.4811 30.559 32.4586 30.8032 32.4926C31.0369 32.5856 31.2881 32.6263 31.5393 32.6119C31.8462 32.5352 32.0139 32.203 32.3009 32.0724C32.7073 31.8821 33.1762 32.1689 33.486 32.4955C33.7958 32.822 34.0714 33.2224 34.5034 33.3473C33.8053 34.1681 32.8368 34.7129 31.7723 34.8835C30.8932 35.0389 29.9874 34.9106 29.1861 34.5172C28.4188 34.0742 28.919 33.4211 29.4533 32.9384Z" fill="url(#paint2_linear_28_2644)"/>
<path d="M34.2165 33.4751C34.2978 33.468 34.3791 33.489 34.4467 33.5347C34.476 33.5679 34.4984 33.6066 34.5126 33.6485C34.5267 33.6905 34.5324 33.7348 34.5291 33.7789C34.5282 34.0901 34.4648 34.3979 34.3428 34.6842C34.2208 34.9705 34.0425 35.2294 33.8186 35.4457C33.3478 35.8777 32.7681 36.1736 32.1419 36.3016C31.5156 36.4297 30.8662 36.3851 30.2634 36.1727C29.749 35.9625 28.1603 34.7529 29.1266 34.2191C29.5699 33.9749 30.2008 33.9039 30.6925 33.8073C31.2325 33.6966 31.7753 33.6171 32.3238 33.5603C32.9527 33.4981 33.5845 33.4696 34.2165 33.4751Z" fill="url(#paint3_linear_28_2644)"/>
<path d="M31.1245 33.6795C31.8552 33.6816 32.5856 33.6465 33.3128 33.5745C34.0347 33.4552 34.7679 33.1173 35.1373 32.4869C35.1578 32.7176 35.1087 32.9491 34.9962 33.1515C34.8837 33.354 34.7131 33.5181 34.5064 33.6227C34.0868 33.8264 33.6258 33.9304 33.1593 33.9266C31.8776 34.0004 30.6016 34.0941 29.3369 34.2105C29.766 33.7903 30.5561 33.7165 31.1245 33.6795Z" fill="#C7776E"/>
<g style="mix-blend-mode:color-burn">
<path d="M31.1245 33.6795C31.8552 33.6816 32.5856 33.6465 33.3128 33.5745C34.0347 33.4552 34.7679 33.1173 35.1373 32.4869C35.1578 32.7176 35.1087 32.9491 34.9962 33.1515C34.8837 33.354 34.7131 33.5181 34.5064 33.6227C34.0868 33.8264 33.6258 33.9304 33.1593 33.9266C31.8776 34.0004 30.6016 34.0941 29.3369 34.2105C29.766 33.7903 30.5561 33.7165 31.1245 33.6795Z" fill="#919191"/>
</g>
<path d="M38.7523 23.869C38.3187 24.0309 37.8554 24.0978 37.3938 24.0649C37.2034 24.0649 37.013 24.0479 36.8254 24.0337L34.9071 23.9003H34.7565C34.3863 23.8998 34.0256 23.7836 33.7248 23.568C33.5951 23.4469 33.4908 23.3011 33.4181 23.1393C33.3454 22.9774 33.3057 22.8027 33.3014 22.6253C33.293 22.2713 33.3331 21.9178 33.4208 21.5747C33.8294 21.4624 34.2467 21.3845 34.6684 21.3418C35.7688 21.241 36.8785 21.3528 37.9366 21.6712C38.5434 21.846 39.1339 22.0731 39.7015 22.3499C39.8464 22.9774 39.3519 23.6191 38.7523 23.869Z" fill="white"/>
<path d="M38.1043 22.8979C38.016 23.3598 37.7637 23.7742 37.3939 24.0649C37.2034 24.0649 37.013 24.0479 36.8255 24.0337L34.9071 23.9002H34.7565C34.5382 23.6738 34.3774 23.3983 34.2879 23.0969C34.1984 22.7954 34.1827 22.4769 34.2421 22.1681C34.2421 22.1255 34.2649 22.0858 34.2762 22.046C34.6286 22.046 34.9839 22.046 35.3363 22.0631C35.1686 22.0631 34.8247 21.4952 34.6713 21.3475C35.7717 21.2467 36.8814 21.3585 37.9395 21.6769C38.1262 22.0551 38.1841 22.4838 38.1043 22.8979Z" fill="url(#paint4_linear_28_2644)"/>
<path d="M23.6273 23.869C24.0608 24.0309 24.5242 24.0977 24.9858 24.0649C25.1762 24.0649 25.3666 24.0479 25.5542 24.0337L27.4725 23.9002H27.6231C27.9933 23.8997 28.354 23.7836 28.6548 23.568C28.7845 23.4469 28.8888 23.3011 28.9615 23.1392C29.0342 22.9774 29.0739 22.8026 29.0782 22.6253C29.0866 22.2712 29.0465 21.9178 28.9588 21.5746C28.5502 21.4623 28.1329 21.3845 27.7112 21.3418C26.6102 21.2388 25.4996 21.3487 24.4401 21.6655C23.8333 21.8403 23.2428 22.0674 22.6753 22.3441C22.5332 22.9774 23.0192 23.6191 23.6273 23.869Z" fill="white"/>
<path d="M24.2752 22.8979C24.3636 23.3597 24.6159 23.7742 24.9857 24.0649C25.1761 24.0649 25.3666 24.0479 25.5541 24.0337L27.4724 23.9002H27.6231C27.844 23.6714 28.006 23.3925 28.0951 23.0873C28.1842 22.7821 28.1978 22.4598 28.1346 22.1482C28.1346 22.1056 28.1119 22.0659 28.1005 22.0261C27.7481 22.0261 27.3929 22.0261 27.0405 22.0432C27.2081 22.0432 27.552 21.4753 27.7055 21.3276C26.6054 21.2299 25.4968 21.3446 24.4401 21.6655C24.2509 22.047 24.1929 22.4801 24.2752 22.8979Z" fill="url(#paint5_linear_28_2644)"/>
<path d="M29.4762 23.1166C29.4005 22.7643 29.2597 22.4292 29.0612 22.1284C28.8933 21.8742 28.6883 21.6464 28.4531 21.4526C27.8791 20.9793 27.1483 20.7385 26.4051 20.778C25.662 20.8174 24.9608 21.1342 24.4402 21.6656C23.8936 22.223 23.5875 22.9723 23.5876 23.7526C23.5876 23.7838 23.5876 23.8179 23.5876 23.8491C23.6127 24.6213 23.9371 25.3535 24.4922 25.8913C25.0474 26.429 25.7899 26.7302 26.5632 26.7313C26.8629 26.7322 27.161 26.6872 27.447 26.5978C27.9771 26.4326 28.4505 26.1229 28.8139 25.7035C29.1774 25.2841 29.4166 24.7717 29.5046 24.224C29.5046 24.224 29.5046 24.2041 29.5046 24.1956C29.5251 24.0507 29.5355 23.9046 29.5359 23.7583C29.5396 23.5428 29.5196 23.3276 29.4762 23.1166ZM26.5632 26.1634C25.9681 26.165 25.3934 25.9471 24.9492 25.5515C24.505 25.1559 24.2225 24.6104 24.156 24.0195C24.156 23.9315 24.1418 23.8435 24.1418 23.7526C24.1405 23.1588 24.3588 22.5854 24.7548 22.1426C25.1508 21.6999 25.6966 21.4189 26.2874 21.3538C26.8781 21.2886 27.4721 21.4439 27.9553 21.7897C28.4384 22.1355 28.7766 22.6475 28.9049 23.2273C28.9449 23.3995 28.9649 23.5758 28.9646 23.7526C28.9646 24.39 28.712 25.0015 28.2619 25.4533C27.8119 25.905 27.2011 26.1604 26.5632 26.1634Z" fill="#000446"/>
<path d="M37.9821 21.7649L37.8713 21.6485C37.3472 21.122 36.6446 20.8109 35.9022 20.7768C35.1598 20.7426 34.4316 20.9878 33.8613 21.4639C33.6614 21.6298 33.4838 21.8206 33.3327 22.0318C33.2834 22.1 33.2379 22.1709 33.1963 22.2448C33.0268 22.5282 32.9067 22.8384 32.841 23.1619C32.8034 23.3566 32.7843 23.5543 32.7842 23.7526C32.7844 23.9489 32.8034 24.1448 32.841 24.3375C32.9859 25.0501 33.3867 25.6852 33.9678 26.1229C34.549 26.5607 35.2703 26.7709 35.9959 26.714C36.7215 26.6571 37.4011 26.337 37.9068 25.8139C38.4124 25.2909 38.7091 24.6011 38.7409 23.8747C38.7409 23.8349 38.7409 23.7952 38.7409 23.7554C38.7424 23.0211 38.4722 22.3121 37.9821 21.7649ZM35.7625 26.1633C35.4244 26.1638 35.09 26.0927 34.7814 25.9547C34.4728 25.8166 34.197 25.6148 33.9721 25.3626C33.5745 24.9216 33.3547 24.3489 33.3554 23.7554C33.3551 23.5912 33.3722 23.4275 33.4066 23.267C33.4124 23.2314 33.4209 23.1963 33.4321 23.1619C33.5239 22.8014 33.6979 22.467 33.9405 22.1847C34.183 21.9025 34.4876 21.6801 34.8304 21.5349C35.1253 21.4102 35.4424 21.3465 35.7625 21.3475C36.2788 21.3482 36.7813 21.5139 37.1966 21.8205C37.6118 22.127 37.9179 22.5583 38.0702 23.0512C38.1401 23.2813 38.1755 23.5206 38.1754 23.7611C38.1754 23.8548 38.1754 23.9456 38.1612 24.045C38.0884 24.6295 37.8045 25.1674 37.3628 25.5574C36.9211 25.9475 36.352 26.163 35.7625 26.1633Z" fill="#000446"/>
<path d="M31.1499 22.6395C30.4799 22.6348 29.8265 22.8481 29.2885 23.2471C29.2657 23.6049 29.189 23.9883 29.1663 24.346C29.5322 24.2141 29.8851 24.0487 30.2206 23.852C30.6964 23.6538 31.2228 23.6113 31.7242 23.7307C32.2256 23.8501 32.6762 24.1251 33.0114 24.5164C33.0626 24.1189 32.9887 23.6645 33.0114 23.2699C32.4756 22.864 31.8224 22.6428 31.1499 22.6395Z" fill="#000446"/>
<path d="M40.1448 49.3537L39.6503 49.2202C39.7278 49.1282 39.7954 49.0282 39.8521 48.9221C40.4432 47.8374 39.8521 46.2132 38.6442 45.8554C38.8858 45.3727 39.1302 44.8928 39.3746 44.4101L37.8457 44.1261C38.0072 43.8607 38.1306 43.574 38.2123 43.2743C38.2135 43.2687 38.2135 43.2628 38.2123 43.2572C38.3572 42.7433 38.326 42.2322 37.8883 41.988C37.6768 41.8798 37.4326 41.8544 37.2034 41.917C36.9258 41.993 36.6586 42.1026 36.4076 42.2435C34.1469 43.3779 31.5758 43.739 29.0896 43.2714C28.021 43.0755 26.5319 42.3174 25.4121 42.3316C25.0464 42.3171 24.6889 42.4419 24.4118 42.6808C24.0849 42.9818 23.8718 43.5043 23.8434 44.3505C23.8235 44.8417 23.9372 45.3414 23.815 45.8156C23.6927 46.2898 23.1869 46.73 22.7378 46.5284L23.7155 47.7039L22.2718 48.3797C22.2718 48.7688 22.2576 49.1549 22.2519 49.5411C22.2519 49.7342 22.2519 49.9244 22.2519 50.109C15.7181 50.7084 9.32694 52.3746 3.33301 55.0413C11.178 60.7792 20.6283 63.9109 30.3503 63.9945C40.0722 64.078 49.575 61.1092 57.5176 55.5069C52.0948 53.0895 46.4962 51.0866 40.77 49.5155L40.1448 49.3537Z" fill="#FA6857"/>
<g style="mix-blend-mode:color-burn">
<path d="M28.311 45.6623C27.3817 45.3131 26.3927 45.0632 25.5827 44.4839C25.5029 44.4274 25.426 44.3668 25.3525 44.3022C24.8577 43.8921 24.5252 43.3193 24.4147 42.6865C24.0879 42.9875 23.8747 43.51 23.8463 44.3562C23.8264 44.8474 23.9401 45.3472 23.8179 45.8214C23.6957 46.2956 23.1898 46.7357 22.7408 46.5341L23.7156 47.704L22.2718 48.3798C22.2718 48.7688 22.2576 49.155 22.252 49.5411C22.3513 49.5315 22.4479 49.5025 22.5361 49.4559C22.8203 49.3083 22.9738 48.6808 23.3887 48.4706C23.8236 48.3086 24.2863 48.2343 24.75 48.252H24.9007C25.4292 48.2562 25.9455 48.0932 26.3756 47.7863L25.0712 47.1361L24.7244 46.9657C24.8517 46.8835 24.9847 46.8104 25.1223 46.747C25.9671 46.33 26.9252 46.2003 27.8506 46.3779C28.0293 46.431 28.217 46.4465 28.4019 46.4233C28.4943 46.4091 28.5786 46.3624 28.6396 46.2916C28.7005 46.2208 28.7342 46.1306 28.7344 46.0372C28.7032 45.8412 28.4986 45.7333 28.311 45.6623Z" fill="#919191"/>
</g>
<g style="mix-blend-mode:color-burn">
<path d="M38.6499 45.8554C38.8915 45.3727 39.1359 44.8928 39.3803 44.4101L37.8513 44.1261C38.0129 43.8608 38.1363 43.574 38.2179 43.2743C38.011 43.7239 37.6944 44.1145 37.2971 44.4101C37.2716 44.4328 37.246 44.4499 37.2204 44.4697C36.4105 45.0376 35.4215 45.2989 34.4921 45.6481C34.3074 45.7191 34.0943 45.827 34.0715 46.023C34.0718 46.1164 34.1054 46.2066 34.1664 46.2774C34.2274 46.3482 34.3116 46.3949 34.404 46.4091C34.5946 46.4341 34.7883 46.4186 34.9724 46.3637C35.8195 46.2064 36.6942 46.3053 37.4847 46.6476C37.6959 46.7366 37.8994 46.843 38.0929 46.9657L37.5416 47.2496L36.4474 47.7891C36.7968 48.0555 37.2191 48.209 37.6581 48.2293C37.7973 48.2463 37.9423 48.2548 38.073 48.2633C38.5368 48.2456 38.9994 48.32 39.4343 48.482C39.6173 48.5915 39.7682 48.7472 39.872 48.9335C40.4403 47.8374 39.8577 46.2132 38.6499 45.8554Z" fill="#919191"/>
</g>
<path d="M40.2698 49.4559C40.3423 49.5001 40.4232 49.5288 40.5073 49.54C40.5915 49.5513 40.6771 49.5449 40.7586 49.5212L40.1448 49.3537C40.1795 49.3955 40.2219 49.4302 40.2698 49.4559Z" fill="#854F49"/>
<path d="M33.1393 11.5199C32.0542 11.0981 30.8919 10.9103 29.729 10.969C30.3252 10.6426 30.8317 10.1745 31.204 9.60608C30.1382 9.90991 28.9986 9.83324 27.9016 9.82472C27.264 9.80527 26.626 9.84137 25.9947 9.93262C25.6748 9.98577 25.3579 10.0559 25.0455 10.1427C24.7699 10.2615 24.4846 10.3565 24.1929 10.4267C25.6138 10.3472 27.0718 10.2677 28.4558 10.5914C27.3456 10.8041 26.3067 11.2923 25.4348 12.0112C26.4936 11.5364 27.69 11.4666 28.7968 11.8152L26.1254 13.7717C27.2662 13.1834 28.5365 12.8905 29.8199 12.9198C31.1012 12.9558 32.377 13.1002 33.6338 13.3514C32.5343 12.6483 31.2951 12.1919 30.0018 12.014C30.9667 11.5149 32.0675 11.3415 33.1393 11.5199Z" fill="#FDC07A"/>
<path d="M37.0414 31.7799C36.7424 31.2403 36.2985 30.7949 35.7597 30.4939C35.2209 30.1928 34.6087 30.0482 33.992 30.0762C32.7615 30.1074 32.5426 30.0989 30.9994 31.0189C29.6382 30.0989 27.2737 29.5991 25.9777 31.5584C24.9802 33.0662 24.4601 34.9658 24.9177 36.7774C24.9796 37.017 25.0546 37.253 25.1422 37.4845C26.4665 38.5578 27.8079 39.3586 28.8879 40.2303C29.523 40.76 30.3241 41.0501 31.1515 41.0501C31.9788 41.0501 32.7799 40.76 33.4151 40.2303C34.7082 39.1825 36.3849 38.3335 37.9622 36.979C37.9281 36.2578 37.7548 35.5195 37.6525 34.7983C37.5132 33.7732 37.5132 32.6857 37.0414 31.7799ZM36.0922 34.2985C35.8848 35.3605 34.9895 36.0761 34.1029 36.5929C33.2872 37.0756 32.3977 37.4845 31.4797 37.5186C30.5618 37.5526 29.7234 37.2346 28.8765 36.9336C27.9046 36.5787 26.8133 36.0988 26.4722 35.0397C26.1085 33.9038 26.8729 32.6204 27.8733 32.1178C28.9419 31.5783 29.2801 31.601 30.8005 31.8338C31.9714 32.0127 33.094 30.9167 34.3245 31.3596C35.4556 31.7628 36.3452 33.0435 36.0922 34.2985Z" fill="#FCE096"/>
<defs>
<linearGradient id="paint0_linear_28_2644" x1="31.15" y1="40.9999" x2="31.0847" y2="50.5833" gradientUnits="userSpaceOnUse">
<stop stop-color="#964138"/>
<stop offset="1" stop-color="#C7776E"/>
</linearGradient>
<linearGradient id="paint1_linear_28_2644" x1="31.6558" y1="31.5527" x2="29.2668" y2="18.5867" gradientUnits="userSpaceOnUse">
<stop stop-color="#964138"/>
<stop offset="0.19" stop-color="#A8554C"/>
<stop offset="0.45" stop-color="#B9685F"/>
<stop offset="0.72" stop-color="#C4736A"/>
<stop offset="1" stop-color="#C7776E"/>
</linearGradient>
<linearGradient id="paint2_linear_28_2644" x1="31.5175" y1="32.7618" x2="32.1148" y2="36.9509" gradientUnits="userSpaceOnUse">
<stop stop-color="#964138"/>
<stop offset="0.07" stop-color="#A55249"/>
<stop offset="0.18" stop-color="#B4635A"/>
<stop offset="0.31" stop-color="#BF6E65"/>
<stop offset="0.49" stop-color="#C5756C"/>
<stop offset="1" stop-color="#C7776E"/>
</linearGradient>
<linearGradient id="paint3_linear_28_2644" x1="33.0972" y1="35.5701" x2="29.5535" y2="32.4988" gradientUnits="userSpaceOnUse">
<stop stop-color="#964138"/>
<stop offset="0.07" stop-color="#A55249"/>
<stop offset="0.18" stop-color="#B4635A"/>
<stop offset="0.31" stop-color="#BF6E65"/>
<stop offset="0.49" stop-color="#C5756C"/>
<stop offset="1" stop-color="#C7776E"/>
</linearGradient>
<linearGradient id="paint4_linear_28_2644" x1="36.4731" y1="22.8525" x2="34.0187" y2="21.3712" gradientUnits="userSpaceOnUse">
<stop stop-color="#5F0030"/>
<stop offset="1" stop-color="#C7776E"/>
</linearGradient>
<linearGradient id="paint5_linear_28_2644" x1="25.9065" y1="22.8524" x2="28.3637" y2="21.3712" gradientUnits="userSpaceOnUse">
<stop stop-color="#5F0030"/>
<stop offset="1" stop-color="#C7776E"/>
</linearGradient>
</defs>
</svg>
