<svg xmlns="http://www.w3.org/2000/svg" width="27" height="27" fill="none" viewBox="0 0 27 27"><path fill="#FA7268" d="M26.1 10.8H23.0256C22.8253 10.0969 22.547 9.41841 22.1959 8.77716L24.0363 6.9363C24.1199 6.85277 24.1862 6.75357 24.2315 6.64439C24.2767 6.53521 24.3 6.41819 24.3 6.3C24.3 6.18181 24.2767 6.06479 24.2315 5.9556C24.1862 5.84642 24.1199 5.74723 24.0363 5.6637L21.3363 2.9637C21.2528 2.88009 21.1536 2.81377 21.0444 2.76851C20.9352 2.72326 20.8182 2.69997 20.7 2.69997C20.5818 2.69997 20.4648 2.72326 20.3556 2.76851C20.2464 2.81377 20.1472 2.88009 20.0637 2.9637L18.2232 4.80411C17.5819 4.45282 16.9032 4.17437 16.2 3.97395V0.9C16.2 0.661305 16.1052 0.432387 15.9364 0.263604C15.7676 0.0948211 15.5387 0 15.3 0H11.7C11.4613 0 11.2324 0.0948211 11.0636 0.263604C10.8948 0.432387 10.8 0.661305 10.8 0.9V3.97395C10.0969 4.17431 9.41834 4.45276 8.77716 4.80411L6.9363 2.9637C6.85277 2.88009 6.75357 2.81377 6.64439 2.76851C6.53521 2.72326 6.41819 2.69997 6.3 2.69997C6.18181 2.69997 6.06479 2.72326 5.9556 2.76851C5.84642 2.81377 5.74723 2.88009 5.6637 2.9637L2.9637 5.6637C2.88009 5.74723 2.81377 5.84642 2.76851 5.9556C2.72326 6.06479 2.69997 6.18181 2.69997 6.3C2.69997 6.41819 2.72326 6.53521 2.76851 6.64439C2.81377 6.75357 2.88009 6.85277 2.9637 6.9363L4.80411 8.77716C4.45276 9.41834 4.17431 10.0969 3.97395 10.8H0.9C0.661305 10.8 0.432387 10.8948 0.263604 11.0636C0.0948211 11.2324 0 11.4613 0 11.7V15.3C0 15.5387 0.0948211 15.7676 0.263604 15.9364C0.432387 16.1052 0.661305 16.2 0.9 16.2H3.97395C4.17431 16.9032 4.45276 17.5817 4.80411 18.2228L2.9637 20.0637C2.88009 20.1472 2.81377 20.2464 2.76851 20.3556C2.72326 20.4648 2.69997 20.5818 2.69997 20.7C2.69997 20.8182 2.72326 20.9352 2.76851 21.0444C2.81377 21.1536 2.88009 21.2528 2.9637 21.3363L5.6637 24.0363C5.74723 24.1199 5.84642 24.1862 5.9556 24.2315C6.06479 24.2767 6.18181 24.3 6.3 24.3C6.41819 24.3 6.53521 24.2767 6.64439 24.2315C6.75357 24.1862 6.85277 24.1199 6.9363 24.0363L8.77716 22.1959C9.41834 22.5472 10.0969 22.8257 10.8 23.026V26.1C10.8 26.3387 10.8948 26.5676 11.0636 26.7364C11.2324 26.9052 11.4613 27 11.7 27H15.3C15.5387 27 15.7676 26.9052 15.9364 26.7364C16.1052 26.5676 16.2 26.3387 16.2 26.1V23.026C16.9032 22.8256 17.5819 22.5472 18.2232 22.1959L20.0637 24.0363C20.1472 24.1199 20.2464 24.1862 20.3556 24.2315C20.4648 24.2767 20.5818 24.3 20.7 24.3C20.8182 24.3 20.9352 24.2767 21.0444 24.2315C21.1536 24.1862 21.2528 24.1199 21.3363 24.0363L24.0363 21.3363C24.1199 21.2528 24.1862 21.1536 24.2315 21.0444C24.2767 20.9352 24.3 20.8182 24.3 20.7C24.3 20.5818 24.2767 20.4648 24.2315 20.3556C24.1862 20.2464 24.1199 20.1472 24.0363 20.0637L22.1959 18.2228C22.547 17.5816 22.8253 16.9031 23.0256 16.2H26.1C26.3387 16.2 26.5676 16.1052 26.7364 15.9364C26.9052 15.7676 27 15.5387 27 15.3V11.7C27 11.4613 26.9052 11.2324 26.7364 11.0636C26.5676 10.8948 26.3387 10.8 26.1 10.8ZM13.5 18C12.61 18 11.74 17.7361 10.9999 17.2416C10.2599 16.7471 9.68314 16.0443 9.34254 15.2221C9.00195 14.3998 8.91283 13.495 9.08647 12.6221C9.2601 11.7492 9.68868 10.9474 10.318 10.318C10.9474 9.68868 11.7492 9.2601 12.6221 9.08647C13.495 8.91283 14.3998 9.00195 15.2221 9.34254C16.0443 9.68314 16.7471 10.2599 17.2416 10.9999C17.7361 11.74 18 12.61 18 13.5C18 14.6935 17.5259 15.8381 16.682 16.682C15.8381 17.5259 14.6935 18 13.5 18Z"/></svg>