<svg xmlns="http://www.w3.org/2000/svg" width="26" height="25" fill="none" viewBox="0 0 26 25"><path fill="#F4BCB8" d="M8.60924 9.82036C9.08474 9.82036 9.47021 9.42061 9.47021 8.92749C9.47021 8.43438 9.08474 8.03463 8.60924 8.03463C8.13374 8.03463 7.74826 8.43438 7.74826 8.92749C7.74826 9.42061 8.13374 9.82036 8.60924 9.82036Z"/><path fill="#F4BCB8" d="M17.219 16.9632C17.6945 16.9632 18.0799 16.5635 18.0799 16.0704C18.0799 15.5773 17.6945 15.1775 17.219 15.1775C16.7435 15.1775 16.358 15.5773 16.358 16.0704C16.358 16.5635 16.7435 16.9632 17.219 16.9632Z"/><path fill="#F4BCB8" d="M23.7101 8.22855C22.7218 7.21682 22.0334 5.9329 21.7262 4.52845C20.3792 0.178424 18.9994 -0.542472 15.0106 0.318157C13.6418 0.733608 12.1869 0.733608 10.8181 0.318157C6.85311 -0.531936 5.45859 0.145835 4.10247 4.52934C3.79501 5.93309 3.10677 7.21634 2.11896 8.22766C-0.686266 11.5854 -0.726302 13.3655 2.11896 16.7695C3.1069 17.7814 3.79501 19.0653 4.10204 20.4696C5.47099 24.8899 6.89082 25.5232 10.8176 24.6799C12.1866 24.2643 13.6416 24.2643 15.0106 24.6799C18.9691 25.5286 20.3676 24.8601 21.7266 20.4688C22.034 19.065 22.7223 17.7817 23.7101 16.7704C26.5149 13.4126 26.5549 11.6327 23.7101 8.22855ZM6.02632 8.92758C6.02632 8.3978 6.1778 7.87992 6.46162 7.43943C6.74543 6.99894 7.14883 6.65562 7.62079 6.45289C8.09276 6.25015 8.6121 6.1971 9.11314 6.30046C9.61418 6.40381 10.0744 6.65892 10.4356 7.03353C10.7969 7.40814 11.0429 7.88542 11.1425 8.40501C11.2422 8.9246 11.191 9.46318 10.9955 9.95263C10.8 10.4421 10.469 10.8604 10.0442 11.1547C9.61947 11.4491 9.12009 11.6062 8.60924 11.6062C7.92443 11.6054 7.26789 11.3229 6.78367 10.8208C6.29944 10.3186 6.02707 9.63774 6.02632 8.92758ZM8.35697 18.4875C8.19469 18.6508 7.97701 18.7413 7.75094 18.7395C7.52487 18.7377 7.30855 18.6437 7.1487 18.478C6.98884 18.3122 6.89828 18.0878 6.89657 17.8534C6.89486 17.6189 6.98214 17.3932 7.13955 17.2249L17.4712 6.5106C17.6335 6.34736 17.8512 6.25687 18.0773 6.25866C18.3033 6.26045 18.5197 6.35439 18.6795 6.52017C18.8394 6.68596 18.9299 6.9103 18.9316 7.14474C18.9333 7.37918 18.8461 7.60492 18.6887 7.77319L8.35697 18.4875ZM17.219 18.7491C16.7081 18.7491 16.2087 18.592 15.784 18.2976C15.3592 18.0033 15.0282 17.585 14.8327 17.0955C14.6372 16.6061 14.586 16.0675 14.6857 15.5479C14.7853 15.0283 15.0313 14.551 15.3926 14.1764C15.7538 13.8018 16.214 13.5467 16.7151 13.4434C17.2161 13.34 17.7354 13.393 18.2074 13.5958C18.6794 13.7985 19.0828 14.1418 19.3666 14.5823C19.6504 15.0228 19.8019 15.5407 19.8019 16.0705C19.8011 16.7806 19.5288 17.4615 19.0445 17.9637C18.5603 18.4658 17.9038 18.7483 17.219 18.7491Z"/></svg>