<svg xmlns="http://www.w3.org/2000/svg" width="66" height="27" fill="none" viewBox="0 0 66 27"><path fill="#BA1E13" d="M9.36718 4.53338H0C0 2.03024 2.0961 0 4.68319 0C7.27029 0 9.36639 2.02947 9.36639 4.5326L9.36718 4.53338Z"/><path fill="#BA1E13" d="M66 4.53338H56.6328C56.6328 2.03024 58.7289 0 61.3168 0C63.9047 0 66 2.02947 66 4.5326V4.53338Z"/><path fill="url(#paint0_linear_24_2521)" d="M25.645 27C16.6208 27 9.27888 19.8942 9.27888 11.1609V4.5326H9.28923C9.24785 2.10957 7.19791 0.150188 4.68323 0.150188V0H61.3168V0.150188C58.7767 0.150188 56.7108 2.15039 56.7108 4.60808V11.1609C56.7108 19.8949 49.3689 27 40.3455 27H25.6458H25.645Z"/><path fill="url(#paint1_linear_24_2521)" d="M61.3168 0C58.7297 0 56.6336 2.02947 56.6336 4.53261V11.0854C56.6336 19.7917 49.3411 26.8498 40.3455 26.8498H25.6458C16.6494 26.8498 9.35687 19.7917 9.35687 11.0854V4.53261H9.36801C9.36722 2.02947 7.27032 0 4.68323 0H61.3168Z"/><path fill="#fff" d="M18.3396 8.1741C18.3396 6.51587 19.4688 5.43066 21.0262 5.43066C21.5944 5.43066 22.1785 5.55158 22.5756 5.73951L22.4665 6.65913C22.0145 6.48583 21.5944 6.35798 21.0262 6.35798C19.967 6.35798 19.4298 7.11893 19.4298 8.1741C19.4298 9.22927 19.967 9.99023 21.0262 9.99023C21.5944 9.99023 22.0153 9.86237 22.4665 9.68908L22.5756 10.6087C22.1785 10.7974 21.5944 10.9175 21.0262 10.9175C19.4688 10.9175 18.3396 9.83234 18.3396 8.1741Z"/><path fill="#fff" d="M23.0125 8.1741C23.0125 6.51587 24.1417 5.43066 25.699 5.43066C27.2564 5.43066 28.3856 6.51587 28.3856 8.1741C28.3856 9.83234 27.2564 10.9175 25.699 10.9175C24.1417 10.9175 23.0125 9.83234 23.0125 8.1741ZM24.1027 8.1741C24.1027 9.22927 24.6398 9.99023 25.699 9.99023C26.7582 9.99023 27.2954 9.22927 27.2954 8.1741C27.2954 7.11893 26.7582 6.35798 25.699 6.35798C24.6398 6.35798 24.1027 7.11893 24.1027 8.1741Z"/><path fill="#fff" d="M33.7205 10.8119L33.2534 7.27751L31.8591 9.7044L30.4578 7.28521L29.9906 10.8127H28.9553L29.7105 5.53687H30.5278L31.8591 7.94142L33.1825 5.53687H34.0006L34.7558 10.8127H33.7205V10.8119Z"/><path fill="#fff" d="M35.6599 10.812V5.53613H36.657V10.812H35.6599Z"/><path fill="#fff" d="M41.3442 10.812L38.8526 7.19437V10.812H37.8555V5.53613H38.8367L41.1651 8.94271V5.53613H42.1623V10.812H41.345H41.3442Z"/><path fill="#fff" d="M43.0344 8.1664C43.0344 6.51587 44.1556 5.43066 45.752 5.43066C46.2812 5.43066 46.9902 5.55158 47.3873 5.73951L47.2783 6.65913C46.8581 6.49353 46.2581 6.35798 45.775 6.35798C44.6379 6.35798 44.1238 7.12664 44.1238 8.15177C44.1238 9.22927 44.692 9.991 45.8212 9.991C46.0472 9.991 46.3042 9.96096 46.5684 9.90781V8.96587H45.9692V8.16717H47.5656V10.5186C47.1685 10.7373 46.3194 10.9183 45.6971 10.9183C44.1707 10.9183 43.0336 9.83311 43.0336 8.16717L43.0344 8.1664Z"/><path fill="#fff" d="M22.4442 19.5776L22.5612 18.477C22.8572 18.7558 23.4564 19.0347 24.2745 19.0347C24.8586 19.0347 25.2477 18.8914 25.2477 18.4616C25.2477 17.9263 24.6406 17.7384 23.9785 17.5197C23.2074 17.2632 22.3662 16.9998 22.3662 16.0579C22.3662 15.357 22.8644 14.4751 24.3366 14.4751C25.0838 14.4751 25.7929 14.7015 26.073 14.8818L25.9719 15.8692C25.3878 15.5603 24.8976 15.3947 24.3756 15.3947C23.9554 15.3947 23.3784 15.5002 23.3784 15.9523C23.3784 16.3744 23.8846 16.54 24.4766 16.7133C25.3257 16.9621 26.3611 17.2632 26.3611 18.4239C26.3611 19.027 26.0889 19.9612 24.2506 19.9612C23.4254 19.9612 22.7554 19.7725 22.4442 19.5769V19.5776Z"/><path fill="#fff" d="M26.8593 17.2185C26.8593 15.5603 27.9885 14.4751 29.5458 14.4751C31.1032 14.4751 32.2324 15.5603 32.2324 17.2185C32.2324 18.8768 31.1032 19.962 29.5458 19.962C27.9885 19.962 26.8593 18.8768 26.8593 17.2185ZM27.9495 17.2185C27.9495 18.2737 28.4866 19.0347 29.5458 19.0347C30.605 19.0347 31.1422 18.2737 31.1422 17.2185C31.1422 16.1634 30.605 15.4024 29.5458 15.4024C28.4866 15.4024 27.9495 16.1634 27.9495 17.2185Z"/><path fill="#fff" d="M32.7783 17.2185C32.7783 15.5603 33.9075 14.4751 35.4649 14.4751C37.0222 14.4751 38.1515 15.5603 38.1515 17.2185C38.1515 18.8768 37.0222 19.962 35.4649 19.962C33.9075 19.962 32.7783 18.8768 32.7783 17.2185ZM33.8685 17.2185C33.8685 18.2737 34.4057 19.0347 35.4649 19.0347C36.5241 19.0347 37.0612 18.2737 37.0612 17.2185C37.0612 16.1634 36.5241 15.4024 35.4649 15.4024C34.4057 15.4024 33.8685 16.1634 33.8685 17.2185Z"/><path fill="#fff" d="M42.5124 19.8564L40.0208 16.2388V19.8564H39.0237V14.5806H40.0049L42.3333 17.9871V14.5806H43.3305V19.8564H42.5132H42.5124Z"/><defs><linearGradient id="paint0_linear_24_2521" x1="33" x2="33" y1="27.53" y2="-6.146" gradientUnits="userSpaceOnUse"><stop stop-color="#D62222"/><stop offset=".46" stop-color="#E61F1F"/><stop offset="1" stop-color="#FF1C1C"/></linearGradient><linearGradient id="paint1_linear_24_2521" x1="33" x2="33" y1="33.844" y2="-.053" gradientUnits="userSpaceOnUse"><stop stop-color="#D62222"/><stop offset=".46" stop-color="#E61F1F"/><stop offset="1" stop-color="#FF1C1C"/></linearGradient></defs></svg>