<svg xmlns="http://www.w3.org/2000/svg" width="33" height="15" fill="none" viewBox="0 0 33 15"><path fill="#FA7268" d="M32 8.36401C32.5523 8.36401 33 7.9163 33 7.36401C33 6.81173 32.5523 6.36401 32 6.36401L32 8.36401ZM0.292893 6.6569C-0.0976295 7.04743 -0.0976296 7.68059 0.292892 8.07112L6.65685 14.4351C7.04738 14.8256 7.68054 14.8256 8.07107 14.4351C8.46159 14.0446 8.46159 13.4114 8.07107 13.0209L2.41421 7.36401L8.07107 1.70716C8.46159 1.31663 8.46159 0.683468 8.07107 0.292944C7.68054 -0.0975807 7.04738 -0.0975807 6.65686 0.292944L0.292893 6.6569ZM32 6.36401L1 6.36401L1 8.36401L32 8.36401L32 6.36401Z"/></svg>