<svg width="27" height="27" viewBox="0 0 27 27" fill="none" xmlns="http://www.w3.org/2000/svg">
<path d="M15.3 0C15.0613 0 14.8324 0.0948211 14.6636 0.263604C14.4948 0.432387 14.4 0.661305 14.4 0.9V11.7C14.4 11.9387 14.4948 12.1676 14.6636 12.3364C14.8324 12.5052 15.0613 12.6 15.3 12.6H26.1C26.3387 12.6 26.5676 12.5052 26.7364 12.3364C26.9052 12.1676 27 11.9387 27 11.7C26.9965 8.59804 25.7627 5.62414 23.5693 3.43072C21.3759 1.2373 18.402 0.00350166 15.3 0Z" fill="#F4BCB8"/>
<path d="M22.5 14.4H12.6V4.5C12.6 4.26131 12.5052 4.03239 12.3364 3.8636C12.1676 3.69482 11.9387 3.6 11.7 3.6C9.38596 3.6 7.12389 4.28619 5.19983 5.57181C3.27578 6.85742 1.77616 8.68471 0.890615 10.8226C0.00506943 12.9605 -0.22663 15.313 0.224818 17.5826C0.676265 19.8521 1.79058 21.9369 3.42686 23.5732C5.06313 25.2094 7.14787 26.3237 9.41745 26.7752C11.687 27.2266 14.0395 26.9949 16.1774 26.1094C18.3153 25.2238 20.1426 23.7242 21.4282 21.8002C22.7138 19.8761 23.4 17.614 23.4 15.3C23.4 15.0613 23.3052 14.8324 23.1364 14.6636C22.9676 14.4948 22.7387 14.4 22.5 14.4Z" fill="#F4BCB8"/>
</svg>
