<svg width="62" height="64" viewBox="0 0 62 64" fill="none" xmlns="http://www.w3.org/2000/svg">
<path d="M52.9203 52.875C65.0266 40.7791 65.0266 21.1677 52.9203 9.07181C40.8141 -3.0241 21.186 -3.0241 9.07973 9.07181C-3.02652 21.1677 -3.02652 40.7791 9.07973 52.875C21.186 64.9709 40.8141 64.9709 52.9203 52.875Z" fill="#FAE4D9"/>
<path d="M38.0645 51.0204H24.2441C24.2441 51.0204 26.8786 43.1066 24.2441 33.0746C23.5479 30.4196 38.6841 30.4083 38.0645 33.0746C36.1263 41.3972 38.0645 51.0204 38.0645 51.0204Z" fill="#C7776E"/>
<path d="M38.0645 51.0204H24.2441C24.2441 51.0204 26.8786 43.1066 24.2441 33.0746C23.5479 30.4196 38.6841 30.4083 38.0645 33.0746C36.1263 41.3972 38.0645 51.0204 38.0645 51.0204Z" fill="url(#paint0_linear_24_2364)"/>
<path d="M42.6542 24.5048C42.6542 31.3197 40.4403 34.4119 37.9536 36.3627C36.3849 37.595 34.7081 38.3702 33.4065 39.3243C32.7512 39.8083 31.9578 40.0694 31.1429 40.0694C30.328 40.0694 29.5346 39.8083 28.8793 39.3243C27.7993 38.5292 26.4579 37.7995 25.1336 36.8227C22.3485 34.7726 19.6429 31.6377 19.6429 24.5048C19.6429 16.0999 24.7926 9.28784 31.1443 9.28784C37.4961 9.28784 42.6542 16.0999 42.6542 24.5048Z" fill="#C7776E"/>
<path d="M21.314 21.2224C21.314 21.2224 21.4959 17.3862 22.3997 16.1511C23.3034 14.9159 37.857 14.3792 39.0393 15.6683C40.2215 16.9575 40.6166 21.8642 40.6166 21.8642C40.6166 21.8642 42.8532 21.0123 42.7992 20.1037C42.5605 16.1056 41.7903 13.7375 41.0457 12.3546C40.1107 10.614 41.9864 7.00495 42.299 5.0542L36.5128 8.20891L37.3654 5.4347L32.2442 9.37027L32.5966 7.24631L28.399 9.28793C28.399 9.28793 24.7045 8.43607 21.2941 11.463C19.2252 13.3059 19.0859 20.0951 19.0859 20.0951L21.314 21.2224Z" fill="#FCE096"/>
<g style="mix-blend-mode:color-burn">
<path d="M42.7991 23.8519C42.7993 24.9954 42.6908 26.1363 42.4752 27.2593C41.9034 26.981 41.424 26.5438 41.0945 26.0002C40.765 25.4567 40.5993 24.8297 40.6173 24.1944C40.6353 23.5592 40.8362 22.9426 41.1959 22.4185C41.5557 21.8944 42.059 21.4851 42.6457 21.2395C42.7489 22.1065 42.8002 22.9788 42.7991 23.8519Z" fill="#E8E8E8"/>
</g>
<path d="M42.5235 26.5947C41.8916 26.4229 41.3249 26.0677 40.8951 25.5741C40.4652 25.0805 40.1916 24.4706 40.1087 23.8216C40.0258 23.1725 40.1374 22.5135 40.4293 21.9279C40.7213 21.3422 41.1805 20.8562 41.749 20.5313C42.3174 20.2065 42.9695 20.0573 43.6227 20.1027C44.276 20.1481 44.9011 20.3861 45.419 20.7865C45.9369 21.1869 46.3244 21.7317 46.5324 22.3522C46.7403 22.9726 46.7595 23.6407 46.5874 24.272C46.3561 25.118 45.7982 25.8377 45.0363 26.2732C44.2743 26.7087 43.3706 26.8243 42.5235 26.5947Z" fill="#C7776E"/>
<g style="mix-blend-mode:color-burn">
<path d="M45.3398 23.9314C45.4434 23.5418 45.4001 23.1278 45.2182 22.768C45.0363 22.4082 44.7285 22.1278 44.3532 21.9799C43.9779 21.832 43.5613 21.827 43.1826 21.9659C42.8039 22.1047 42.4894 22.3778 42.299 22.7331C42.5318 22.8023 42.7464 22.9223 42.9272 23.0844C43.1079 23.2466 43.2504 23.4469 43.3442 23.6708C43.438 23.8947 43.4809 24.1366 43.4697 24.3791C43.4585 24.6216 43.3935 24.8585 43.2794 25.0728H43.3192C43.7386 25.1881 44.1866 25.1327 44.5653 24.9188C44.944 24.7048 45.2224 24.3498 45.3398 23.9314Z" fill="#919191"/>
</g>
<g style="mix-blend-mode:color-burn">
<path d="M19.6828 23.8519C19.6826 24.9954 19.7911 26.1363 20.0067 27.2593C20.5785 26.981 21.0579 26.5438 21.3874 26.0002C21.7169 25.4567 21.8826 24.8297 21.8646 24.1944C21.8466 23.5592 21.6457 22.9426 21.286 22.4185C20.9262 21.8944 20.4229 21.4851 19.8362 21.2395C19.733 22.1065 19.6817 22.9788 19.6828 23.8519Z" fill="#E8E8E8"/>
</g>
<path d="M19.9584 26.5947C20.5903 26.4229 21.157 26.0677 21.5868 25.5741C22.0166 25.0805 22.2903 24.4706 22.3732 23.8216C22.4561 23.1725 22.3445 22.5135 22.0525 21.9279C21.7606 21.3422 21.3013 20.8562 20.7329 20.5313C20.1645 20.2065 19.5124 20.0573 18.8591 20.1027C18.2059 20.1481 17.5807 20.3861 17.0628 20.7865C16.5449 21.1869 16.1575 21.7317 15.9495 22.3522C15.7415 22.9726 15.7223 23.6407 15.8944 24.272C16.1258 25.118 16.6837 25.8377 17.4456 26.2732C18.2075 26.7087 19.1112 26.8243 19.9584 26.5947Z" fill="#C7776E"/>
<g style="mix-blend-mode:color-burn">
<path d="M17.142 23.9312C17.0443 23.544 17.0909 23.1345 17.2732 22.7791C17.4556 22.4237 17.7611 22.1468 18.1328 22C18.5046 21.8533 18.9171 21.8467 19.2933 21.9816C19.6695 22.1165 19.9837 22.3836 20.1772 22.733C19.7664 22.8557 19.4199 23.1341 19.2117 23.5087C19.0036 23.8833 18.9503 24.3243 19.0632 24.7377C19.0941 24.8543 19.1389 24.9668 19.1968 25.0727H19.157C18.7383 25.1862 18.2918 25.13 17.9144 24.9162C17.5371 24.7025 17.2595 24.3485 17.142 23.9312Z" fill="#919191"/>
</g>
<path d="M29.7916 22.9204C29.7222 23.9722 29.2869 24.9666 28.561 25.7315C28.0267 26.2512 27.3248 26.5834 26.8331 27.1513C26.3415 27.7192 26.1454 28.6789 26.7138 29.156C27.052 29.4399 27.5408 29.4797 27.9926 29.4882L34.4041 29.6444C34.7399 29.6848 35.0802 29.6245 35.3817 29.4712C35.8705 29.1588 35.9046 28.4291 35.6659 27.9038C35.4272 27.3784 34.9554 26.9752 34.6087 26.5124C33.3185 24.7945 33.5003 22.3951 32.6563 20.4216C32.2385 19.4477 30.9511 18.2891 29.9763 19.3994C29.2971 20.1604 29.8911 21.9834 29.7916 22.9204Z" fill="url(#paint1_linear_24_2364)"/>
<path d="M39.4286 21.0578C37.1856 20.601 34.8881 20.4719 32.6079 20.6745C32.5954 19.3933 32.808 18.1199 33.236 16.9121C34.8076 17.02 36.2599 17.1961 37.7092 17.8037C38.2437 17.9859 38.7116 18.323 39.0535 18.772C39.3888 19.3087 39.4599 20.4161 39.4286 21.0578Z" fill="#FCE096"/>
<path d="M22.7748 21.0578C25.0178 20.601 27.3153 20.4719 29.5954 20.6745C29.6129 19.3946 29.4071 18.1214 28.9873 16.9121C27.4128 17.02 25.9634 17.1961 24.514 17.8037C23.9786 17.9854 23.5096 18.3225 23.1669 18.772C22.8117 19.3087 22.735 20.4161 22.7748 21.0578Z" fill="#FCE096"/>
<path d="M29.4534 32.9382C29.6292 32.7656 29.8423 32.6355 30.0764 32.5582C30.3104 32.4809 30.5592 32.4584 30.8033 32.4924C31.037 32.5854 31.2883 32.6261 31.5394 32.6117C31.8463 32.535 32.014 32.2028 32.301 32.0722C32.7074 31.8819 33.1763 32.1687 33.4861 32.4953C33.7959 32.8218 34.0716 33.2222 34.5035 33.3471C33.8054 34.168 32.8369 34.7127 31.7724 34.8833C30.8933 35.0387 29.9875 34.9104 29.1862 34.517C28.4189 34.0741 28.9191 33.421 29.4534 32.9382Z" fill="url(#paint2_linear_24_2364)"/>
<path d="M34.2165 33.475C34.2978 33.4679 34.3791 33.4889 34.4467 33.5346C34.476 33.5678 34.4984 33.6065 34.5126 33.6484C34.5267 33.6903 34.5324 33.7347 34.5291 33.7788C34.5282 34.09 34.4648 34.3978 34.3428 34.6841C34.2208 34.9704 34.0425 35.2293 33.8186 35.4456C33.3478 35.8776 32.7681 36.1734 32.1419 36.3015C31.5156 36.4295 30.8662 36.385 30.2634 36.1725C29.749 35.9624 28.1603 34.7528 29.1266 34.219C29.5699 33.9748 30.2008 33.9038 30.6925 33.8072C31.2325 33.6965 31.7753 33.617 32.3238 33.5602C32.9527 33.4979 33.5845 33.4695 34.2165 33.475Z" fill="url(#paint3_linear_24_2364)"/>
<path d="M31.1245 33.6794C31.8552 33.6815 32.5856 33.6464 33.3128 33.5744C34.0347 33.4551 34.7679 33.1172 35.1373 32.4868C35.1578 32.7175 35.1087 32.9489 34.9962 33.1514C34.8837 33.3538 34.7131 33.518 34.5064 33.6226C34.0868 33.8263 33.6258 33.9303 33.1593 33.9265C31.8776 34.0003 30.6016 34.094 29.3369 34.2104C29.766 33.7902 30.5561 33.7163 31.1245 33.6794Z" fill="#C7776E"/>
<g style="mix-blend-mode:color-burn">
<path d="M31.1245 33.6794C31.8552 33.6815 32.5856 33.6464 33.3128 33.5744C34.0347 33.4551 34.7679 33.1172 35.1373 32.4868C35.1578 32.7175 35.1087 32.9489 34.9962 33.1514C34.8837 33.3538 34.7131 33.518 34.5064 33.6226C34.0868 33.8263 33.6258 33.9303 33.1593 33.9265C31.8776 34.0003 30.6016 34.094 29.3369 34.2104C29.766 33.7902 30.5561 33.7163 31.1245 33.6794Z" fill="#919191"/>
</g>
<path d="M38.7523 23.8688C38.3187 24.0307 37.8554 24.0975 37.3938 24.0647C37.2034 24.0647 37.013 24.0477 36.8254 24.0335L34.9071 23.9H34.7565C34.3863 23.8996 34.0256 23.7834 33.7248 23.5678C33.5951 23.4467 33.4908 23.3009 33.4181 23.139C33.3454 22.9772 33.3057 22.8024 33.3014 22.6251C33.293 22.2711 33.3331 21.9176 33.4208 21.5744C33.8294 21.4622 34.2467 21.3843 34.6684 21.3416C35.7688 21.2408 36.8785 21.3526 37.9366 21.671C38.5434 21.8458 39.1339 22.0728 39.7015 22.3496C39.8464 22.9772 39.3519 23.6189 38.7523 23.8688Z" fill="white"/>
<path d="M38.1042 22.8978C38.0159 23.3597 37.7636 23.7741 37.3937 24.0649C37.2033 24.0649 37.0129 24.0478 36.8253 24.0336L34.907 23.9002H34.7564C34.538 23.6738 34.3773 23.3983 34.2878 23.0968C34.1983 22.7954 34.1826 22.4769 34.242 22.1681C34.242 22.1255 34.2647 22.0857 34.2761 22.046C34.6285 22.046 34.9838 22.046 35.3362 22.063C35.1685 22.063 34.8246 21.4951 34.6711 21.3475C35.7716 21.2466 36.8812 21.3585 37.9394 21.6768C38.1261 22.055 38.184 22.4838 38.1042 22.8978Z" fill="url(#paint4_linear_24_2364)"/>
<path d="M23.6273 23.8688C24.0608 24.0308 24.5242 24.0976 24.9858 24.0648C25.1762 24.0648 25.3666 24.0477 25.5542 24.0335L27.4725 23.9001H27.6231C27.9933 23.8996 28.354 23.7835 28.6548 23.5679C28.7845 23.4467 28.8888 23.301 28.9615 23.1391C29.0342 22.9772 29.0739 22.8025 29.0782 22.6251C29.0866 22.2711 29.0465 21.9176 28.9588 21.5745C28.5502 21.4622 28.1329 21.3843 27.7112 21.3417C26.6102 21.2386 25.4996 21.3485 24.4401 21.6654C23.8333 21.8402 23.2428 22.0672 22.6753 22.344C22.5332 22.9772 23.0192 23.619 23.6273 23.8688Z" fill="white"/>
<path d="M24.2754 22.8977C24.3637 23.3596 24.616 23.774 24.9859 24.0648C25.1763 24.0648 25.3667 24.0477 25.5542 24.0335L27.4726 23.9001H27.6232C27.8441 23.6713 28.0061 23.3923 28.0952 23.0871C28.1843 22.7819 28.1979 22.4597 28.1347 22.1481C28.1347 22.1055 28.112 22.0658 28.1006 22.026C27.7482 22.026 27.393 22.026 27.0406 22.043C27.2083 22.043 27.5521 21.4751 27.7056 21.3275C26.6055 21.2298 25.4969 21.3445 24.4402 21.6654C24.251 22.0468 24.193 22.48 24.2754 22.8977Z" fill="url(#paint5_linear_24_2364)"/>
<path d="M29.4762 23.1164C29.4005 22.7642 29.2597 22.4291 29.0612 22.1283C28.8933 21.8741 28.6883 21.6463 28.4531 21.4525C27.8791 20.9792 27.1483 20.7384 26.4051 20.7779C25.662 20.8173 24.9608 21.1341 24.4402 21.6654C23.8936 22.2228 23.5875 22.9721 23.5876 23.7525C23.5876 23.7837 23.5876 23.8178 23.5876 23.849C23.6127 24.6212 23.9371 25.3534 24.4922 25.8911C25.0474 26.4289 25.7899 26.7301 26.5632 26.7311C26.8629 26.732 27.161 26.687 27.447 26.5977C27.9771 26.4324 28.4505 26.1227 28.8139 25.7034C29.1774 25.284 29.4166 24.7716 29.5046 24.2238C29.5046 24.2238 29.5046 24.204 29.5046 24.1954C29.5251 24.0506 29.5355 23.9045 29.5359 23.7582C29.5396 23.5427 29.5196 23.3275 29.4762 23.1164ZM26.5632 26.1632C25.9681 26.1649 25.3934 25.947 24.9492 25.5514C24.505 25.1557 24.2225 24.6102 24.156 24.0194C24.156 23.9314 24.1418 23.8433 24.1418 23.7525C24.1405 23.1587 24.3588 22.5853 24.7548 22.1425C25.1508 21.6997 25.6966 21.4188 26.2874 21.3536C26.8781 21.2885 27.4721 21.4437 27.9553 21.7895C28.4384 22.1354 28.7766 22.6474 28.9049 23.2272C28.9449 23.3994 28.9649 23.5757 28.9646 23.7525C28.9646 24.3899 28.712 25.0014 28.2619 25.4531C27.8119 25.9049 27.2011 26.1602 26.5632 26.1632Z" fill="#000446"/>
<path d="M37.9821 21.7647L37.8713 21.6483C37.3472 21.1218 36.6446 20.8108 35.9022 20.7766C35.1598 20.7424 34.4316 20.9876 33.8613 21.4637C33.6614 21.6296 33.4838 21.8205 33.3327 22.0316C33.2834 22.0998 33.2379 22.1708 33.1963 22.2446C33.0268 22.5281 32.9067 22.8382 32.841 23.1618C32.8034 23.3564 32.7843 23.5541 32.7842 23.7524C32.7844 23.9487 32.8034 24.1446 32.841 24.3373C32.9859 25.0499 33.3867 25.685 33.9678 26.1228C34.549 26.5605 35.2703 26.7708 35.9959 26.7138C36.7215 26.6569 37.4011 26.3368 37.9068 25.8137C38.4124 25.2907 38.7091 24.601 38.7409 23.8745C38.7409 23.8347 38.7409 23.795 38.7409 23.7552C38.7424 23.0209 38.4722 22.3119 37.9821 21.7647ZM35.7625 26.1631C35.4244 26.1636 35.09 26.0925 34.7814 25.9545C34.4728 25.8165 34.197 25.6147 33.9721 25.3624C33.5745 24.9214 33.3547 24.3488 33.3554 23.7552C33.3551 23.5911 33.3722 23.4273 33.4066 23.2668C33.4124 23.2312 33.4209 23.1961 33.4321 23.1618C33.5239 22.8012 33.6979 22.4668 33.9405 22.1845C34.183 21.9023 34.4876 21.6799 34.8304 21.5347C35.1253 21.41 35.4424 21.3463 35.7625 21.3473C36.2788 21.348 36.7813 21.5137 37.1966 21.8203C37.6118 22.1268 37.9179 22.5581 38.0702 23.051C38.1401 23.2812 38.1755 23.5204 38.1754 23.7609C38.1754 23.8546 38.1754 23.9455 38.1612 24.0448C38.0884 24.6293 37.8045 25.1672 37.3628 25.5573C36.9211 25.9473 36.352 26.1628 35.7625 26.1631Z" fill="#000446"/>
<path d="M31.1501 22.6395C30.48 22.6348 29.8266 22.8481 29.2886 23.2471C29.2659 23.6049 29.1891 23.9883 29.1664 24.346C29.5323 24.2141 29.8852 24.0487 30.2207 23.852C30.6965 23.6538 31.2229 23.6113 31.7243 23.7307C32.2257 23.8501 32.6764 24.1251 33.0115 24.5164C33.0627 24.1189 32.9888 23.6645 33.0115 23.2699C32.4757 22.864 31.8225 22.6428 31.1501 22.6395Z" fill="#000446"/>
<path d="M40.1448 49.3536L39.6503 49.2202C39.7278 49.1281 39.7954 49.0282 39.8521 48.922C40.4432 47.8373 39.8521 46.2131 38.6442 45.8553C38.8858 45.3726 39.1302 44.8927 39.3746 44.41L37.8457 44.1261C38.0072 43.8607 38.1306 43.5739 38.2123 43.2742C38.2135 43.2686 38.2135 43.2628 38.2123 43.2572C38.3572 42.7432 38.326 42.2321 37.8883 41.9879C37.6768 41.8797 37.4326 41.8544 37.2034 41.9169C36.9258 41.9929 36.6586 42.1026 36.4076 42.2435C34.1469 43.3778 31.5758 43.739 29.0896 43.2714C28.021 43.0754 26.5319 42.3173 25.4121 42.3315C25.0464 42.317 24.6889 42.4418 24.4118 42.6808C24.0849 42.9817 23.8718 43.5042 23.8434 44.3504C23.8235 44.8416 23.9372 45.3414 23.815 45.8156C23.6927 46.2898 23.1869 46.7299 22.7378 46.5283L23.7155 47.7039L22.2718 48.3797C22.2718 48.7687 22.2576 49.1549 22.2519 49.541C22.2519 49.7341 22.2519 49.9244 22.2519 50.1089C15.7181 50.7084 9.32694 52.3746 3.33301 55.0412C11.178 60.7791 20.6283 63.9108 30.3503 63.9944C40.0722 64.0779 49.575 61.1091 57.5176 55.5069C52.0948 53.0894 46.4962 51.0865 40.77 49.5155L40.1448 49.3536Z" fill="#FA6857"/>
<g style="mix-blend-mode:color-burn">
<path d="M28.3109 45.6621C27.3816 45.3128 26.3926 45.063 25.5826 44.4837C25.5027 44.4272 25.4259 44.3665 25.3524 44.302C24.8576 43.8918 24.5251 43.3191 24.4146 42.6863C24.0877 42.9873 23.8746 43.5097 23.8462 44.3559C23.8263 44.8472 23.9399 45.3469 23.8177 45.8211C23.6955 46.2953 23.1897 46.7354 22.7406 46.5338L23.7154 47.7037L22.2717 48.3795C22.2717 48.7685 22.2575 49.1547 22.2518 49.5409C22.3512 49.5312 22.4477 49.5023 22.536 49.4557C22.8202 49.308 22.9737 48.6805 23.3886 48.4704C23.8235 48.3084 24.2861 48.2341 24.7499 48.2517H24.9005C25.4291 48.256 25.9454 48.0929 26.3755 47.7861L25.071 47.1358L24.7243 46.9654C24.8516 46.8832 24.9846 46.8102 25.1222 46.7468C25.967 46.3297 26.9251 46.2001 27.8505 46.3777C28.0291 46.4308 28.2169 46.4462 28.4018 46.4231C28.4942 46.4089 28.5785 46.3622 28.6394 46.2914C28.7004 46.2205 28.7341 46.1303 28.7343 46.0369C28.7031 45.841 28.4984 45.7331 28.3109 45.6621Z" fill="#919191"/>
</g>
<g style="mix-blend-mode:color-burn">
<path d="M38.6499 45.8553C38.8915 45.3726 39.1359 44.8927 39.3803 44.41L37.8513 44.126C38.0129 43.8606 38.1363 43.5739 38.2179 43.2742C38.011 43.7238 37.6944 44.1144 37.2971 44.41C37.2716 44.4327 37.246 44.4497 37.2204 44.4696C36.4105 45.0375 35.4215 45.2987 34.4921 45.648C34.3074 45.719 34.0943 45.8269 34.0715 46.0228C34.0718 46.1162 34.1054 46.2065 34.1664 46.2773C34.2274 46.3481 34.3116 46.3948 34.404 46.409C34.5946 46.434 34.7883 46.4185 34.9724 46.3636C35.8195 46.2063 36.6942 46.3052 37.4847 46.6475C37.6959 46.7365 37.8994 46.8428 38.0929 46.9655L37.5416 47.2495L36.4474 47.789C36.7968 48.0554 37.2191 48.2089 37.6581 48.2291C37.7973 48.2462 37.9423 48.2547 38.073 48.2632C38.5368 48.2455 38.9994 48.3198 39.4343 48.4819C39.6173 48.5914 39.7682 48.7471 39.872 48.9333C40.4403 47.8373 39.8577 46.2131 38.6499 45.8553Z" fill="#919191"/>
</g>
<path d="M40.2698 49.4557C40.3423 49.5 40.4232 49.5286 40.5073 49.5399C40.5915 49.5511 40.6771 49.5447 40.7586 49.521L40.1448 49.3535C40.1795 49.3953 40.2219 49.4301 40.2698 49.4557Z" fill="#854F49"/>
<path d="M33.1393 11.5198C32.0542 11.0979 30.8919 10.9102 29.729 10.9689C30.3252 10.6425 30.8317 10.1744 31.204 9.60596C30.1382 9.90979 28.9986 9.83312 27.9016 9.8246C27.264 9.80515 26.626 9.84125 25.9947 9.9325C25.6748 9.98565 25.3579 10.0558 25.0455 10.1426C24.7699 10.2614 24.4846 10.3564 24.1929 10.4266C25.6138 10.3471 27.0718 10.2676 28.4558 10.5913C27.3456 10.804 26.3067 11.2922 25.4348 12.011C26.4936 11.5362 27.69 11.4665 28.7968 11.8151L26.1254 13.7715C27.2662 13.1833 28.5365 12.8904 29.8199 12.9197C31.1012 12.9556 32.377 13.1 33.6338 13.3513C32.5343 12.6481 31.2951 12.1918 30.0018 12.0139C30.9667 11.5147 32.0675 11.3414 33.1393 11.5198Z" fill="#FDC07A"/>
<path d="M37.0414 31.7799C36.7424 31.2403 36.2985 30.7949 35.7597 30.4939C35.2209 30.1928 34.6087 30.0482 33.992 30.0762C32.7615 30.1074 32.5426 30.0989 30.9994 31.0189C29.6382 30.0989 27.2737 29.5991 25.9777 31.5584C24.9802 33.0662 24.4601 34.9658 24.9177 36.7774C24.9796 37.017 25.0546 37.253 25.1422 37.4845C26.4665 38.5578 27.8079 39.3586 28.8879 40.2303C29.523 40.76 30.3241 41.0501 31.1515 41.0501C31.9788 41.0501 32.7799 40.76 33.4151 40.2303C34.7082 39.1825 36.3849 38.3335 37.9622 36.979C37.9281 36.2578 37.7548 35.5195 37.6525 34.7983C37.5132 33.7732 37.5132 32.6857 37.0414 31.7799ZM36.0922 34.2985C35.8848 35.3605 34.9895 36.0761 34.1029 36.5929C33.2872 37.0756 32.3977 37.4845 31.4797 37.5186C30.5618 37.5526 29.7234 37.2346 28.8765 36.9336C27.9046 36.5787 26.8133 36.0988 26.4722 35.0397C26.1085 33.9038 26.8729 32.6204 27.8733 32.1178C28.9419 31.5783 29.2801 31.601 30.8005 31.8338C31.9714 32.0127 33.094 30.9167 34.3245 31.3596C35.4556 31.7628 36.3452 33.0435 36.0922 34.2985Z" fill="#FCE096"/>
<defs>
<linearGradient id="paint0_linear_24_2364" x1="31.1501" y1="40.9997" x2="31.0848" y2="50.5831" gradientUnits="userSpaceOnUse">
<stop stop-color="#964138"/>
<stop offset="1" stop-color="#C7776E"/>
</linearGradient>
<linearGradient id="paint1_linear_24_2364" x1="31.6559" y1="31.5525" x2="29.2669" y2="18.5866" gradientUnits="userSpaceOnUse">
<stop stop-color="#964138"/>
<stop offset="0.19" stop-color="#A8554C"/>
<stop offset="0.45" stop-color="#B9685F"/>
<stop offset="0.72" stop-color="#C4736A"/>
<stop offset="1" stop-color="#C7776E"/>
</linearGradient>
<linearGradient id="paint2_linear_24_2364" x1="31.5176" y1="32.7617" x2="32.115" y2="36.9507" gradientUnits="userSpaceOnUse">
<stop stop-color="#964138"/>
<stop offset="0.07" stop-color="#A55249"/>
<stop offset="0.18" stop-color="#B4635A"/>
<stop offset="0.31" stop-color="#BF6E65"/>
<stop offset="0.49" stop-color="#C5756C"/>
<stop offset="1" stop-color="#C7776E"/>
</linearGradient>
<linearGradient id="paint3_linear_24_2364" x1="33.0972" y1="35.57" x2="29.5535" y2="32.4987" gradientUnits="userSpaceOnUse">
<stop stop-color="#964138"/>
<stop offset="0.07" stop-color="#A55249"/>
<stop offset="0.18" stop-color="#B4635A"/>
<stop offset="0.31" stop-color="#BF6E65"/>
<stop offset="0.49" stop-color="#C5756C"/>
<stop offset="1" stop-color="#C7776E"/>
</linearGradient>
<linearGradient id="paint4_linear_24_2364" x1="36.4729" y1="22.8524" x2="34.0186" y2="21.3712" gradientUnits="userSpaceOnUse">
<stop stop-color="#5F0030"/>
<stop offset="1" stop-color="#C7776E"/>
</linearGradient>
<linearGradient id="paint5_linear_24_2364" x1="25.9066" y1="22.8523" x2="28.3638" y2="21.3711" gradientUnits="userSpaceOnUse">
<stop stop-color="#5F0030"/>
<stop offset="1" stop-color="#C7776E"/>
</linearGradient>
</defs>
</svg>
