<svg xmlns="http://www.w3.org/2000/svg" width="40" height="15" fill="none" viewBox="0 0 40 15"><path fill="#FA7268" d="M1 6.36395C0.447715 6.36395 0 6.81167 0 7.36395C0 7.91624 0.447715 8.36395 1 8.36395L1 6.36395ZM39.7071 8.07106C40.0976 7.68054 40.0976 7.04737 39.7071 6.65685L33.3431 0.292885C32.9526 -0.0976396 32.3195 -0.0976396 31.9289 0.292885C31.5384 0.683409 31.5384 1.31657 31.9289 1.7071L37.5858 7.36395L31.9289 13.0208C31.5384 13.4113 31.5384 14.0445 31.9289 14.435C32.3195 14.8255 32.9526 14.8255 33.3431 14.435L39.7071 8.07106ZM1 8.36395L39 8.36395V6.36395L1 6.36395L1 8.36395Z"/></svg>