<svg xmlns="http://www.w3.org/2000/svg" width="206" height="52" fill="none" viewBox="0 0 206 52"><rect width="98" height="52" fill="#FFF6F5" rx="16"/><path fill="#4285F4" d="M63.0014 26.3109C63.0014 25.1598 62.9061 24.3198 62.6998 23.4487H49.2871V28.6442H57.1601C57.0014 29.9353 56.1442 31.8798 54.2394 33.1864L54.2127 33.3603L58.4536 36.58L58.7474 36.6087C61.4458 34.1664 63.0014 30.5731 63.0014 26.3109Z"/><path fill="#34A853" d="M49.2863 40C53.1434 40 56.3814 38.7555 58.7466 36.6089L54.2386 33.1865C53.0323 34.011 51.4132 34.5866 49.2863 34.5866C45.5086 34.5866 42.3023 32.1444 41.1593 28.7688L40.9918 28.7827L36.5821 32.1272L36.5244 32.2843C38.8736 36.8577 43.699 40 49.2863 40Z"/><path fill="#FBBC05" d="M41.1601 28.7688C40.8585 27.8977 40.684 26.9643 40.684 25.9999C40.684 25.0354 40.8585 24.1021 41.1443 23.231L41.1363 23.0455L36.6713 19.6473L36.5252 19.7154C35.557 21.6132 35.0015 23.7444 35.0015 25.9999C35.0015 28.2555 35.557 30.3865 36.5252 32.2843L41.1601 28.7688Z"/><path fill="#EB4335" d="M49.2864 17.4133C51.9689 17.4133 53.7784 18.5488 54.8102 19.4978L58.8419 15.64C56.3658 13.3844 53.1435 12 49.2864 12C43.699 12 38.8736 15.1422 36.5244 19.7155L41.1434 23.2311C42.3023 19.8555 45.5086 17.4133 49.2864 17.4133Z"/><rect width="98" height="52" x="108" fill="#FFF6F5" rx="16"/><path fill="#039BE5" d="M157 11.75C149.125 11.75 142.75 18.125 142.75 26C142.75 33.875 149.125 40.25 157 40.25C164.875 40.25 171.25 33.875 171.25 26C171.25 18.125 164.875 11.75 157 11.75Z"/><path fill="#FFF6F5" d="M154.9 23.525V26H151.375V29.75H154.9V40.025C155.575 40.175 156.25 40.25 157 40.25C157.675 40.25 158.275 40.175 158.95 40.1V29.75H162.625L163.225 26H158.95V23.975C158.95 22.4 159.475 21.05 160.9 21.05H163.225V17.75C162.85 17.675 161.95 17.6 160.3 17.6C156.85 17.6 154.9 19.4 154.9 23.525Z"/></svg>