<svg xmlns="http://www.w3.org/2000/svg" width="23" height="14" fill="none" viewBox="0 0 23 14"><path fill="#FA7268" d="M22.6182 6.46167L19.4963 3.33979C17.3529 1.2011 14.4485 0 11.4206 0C8.39262 0 5.48831 1.2011 3.34482 3.33979L0.222937 6.46167C0.0801907 6.60446 0 6.79809 0 7C0 7.2019 0.0801907 7.39554 0.222937 7.53833L3.34482 10.6602C5.48831 12.7989 8.39262 14 11.4206 14C14.4485 14 17.3529 12.7989 19.4963 10.6602L22.6182 7.53833C22.761 7.39554 22.8412 7.2019 22.8412 7C22.8412 6.79809 22.761 6.60446 22.6182 6.46167ZM18.4189 9.58354C16.5611 11.4369 14.044 12.4778 11.4198 12.4778C8.79561 12.4778 6.27853 11.4369 4.42072 9.58354L1.83642 7L4.42072 4.41646C6.27844 2.56289 8.79555 1.52191 11.4198 1.52191C14.0441 1.52191 16.5612 2.56289 18.4189 4.41646L21.0032 7L18.4189 9.58354Z"/><path fill="#FA7268" d="M11.42 3.19283C10.667 3.19283 9.9309 3.41612 9.30481 3.83446C8.67873 4.25279 8.19075 4.84739 7.9026 5.54306C7.61444 6.23873 7.53905 7.00423 7.68595 7.74274C7.83285 8.48126 8.19545 9.15963 8.72789 9.69208C9.26033 10.2245 9.9387 10.5871 10.6772 10.734C11.4157 10.8809 12.1812 10.8055 12.8769 10.5174C13.5726 10.2292 14.1672 9.74124 14.5855 9.11515C15.0038 8.48907 15.2271 7.75299 15.2271 7C15.2259 5.99065 14.8244 5.02298 14.1107 4.30926C13.397 3.59554 12.4293 3.19404 11.42 3.19283ZM11.42 9.2843C10.9682 9.2843 10.5265 9.15033 10.1509 8.89933C9.77522 8.64833 9.48244 8.29157 9.30954 7.87417C9.13665 7.45676 9.09141 6.99747 9.17955 6.55436C9.26769 6.11125 9.48525 5.70422 9.80472 5.38476C10.1242 5.06529 10.5312 4.84773 10.9743 4.75959C11.4174 4.67145 11.8767 4.71669 12.2941 4.88958C12.7115 5.06248 13.0683 5.35526 13.3193 5.73091C13.5703 6.10656 13.7043 6.54821 13.7043 7C13.7043 7.60584 13.4636 8.18686 13.0352 8.61525C12.6068 9.04364 12.0258 9.2843 11.42 9.2843Z"/></svg>